<?xml version="1.0" encoding="utf-8"?>
<!-- Generator: Adobe Illustrator 19.2.0, SVG Export Plug-In . SVG Version: 6.00 Build 0)  -->
<svg version="1.1" id="Слой_1" xmlns="http://www.w3.org/2000/svg" xmlns:xlink="http://www.w3.org/1999/xlink" x="0px" y="0px"
	 viewBox="0 0 35 35" style="enable-background:new 0 0 35 35;" xml:space="preserve">
<style type="text/css">
	.st0{fill:#1E5A91;}
</style>
<title>integration</title>
<g>
	<path class="st0" d="M10.3,11.9c-2.6,0-4.9,1.8-5.5,4.3H0v2.6h4.8c0.6,2.5,2.9,4.3,5.5,4.3h6.3v-2.6h-5.1v-1.7h5.1v-2.6h-5.1v-1.7
		h5.1v-2.6H10.3C10.3,11.9,10.3,11.9,10.3,11.9z M16.2,14H11v2.6h5.1v1.7H11V21h5.1v1.7h-5.9c-2.5,0-4.6-1.7-5.1-4.2l0-0.2H0.4v-1.7
		h4.7l0-0.2c0.5-2.4,2.6-4.2,5.1-4.2c0,0,0,0,0,0h5.9V14z"/>
	<path class="st0" d="M30.2,16.2c-0.6-2.5-2.9-4.3-5.5-4.3h-1.2V14h-5.1v2.6h5.1v1.7h-5.1V21h5.1v2.2h1.2c2.6,0,4.9-1.8,5.5-4.3H35
		v-2.6H30.2z M34.6,18.4h-4.7l0,0.2c-0.5,2.4-2.6,4.2-5.1,4.2H24v-2.2h-5.1v-1.7H24v-2.6h-5.1v-1.7H24v-2.2h0.7
		c2.5,0,4.6,1.7,5.1,4.2l0,0.2h4.7V18.4z"/>
</g>
</svg>
