<?xml version="1.0" encoding="utf-8"?>
<!-- Generator: Adobe Illustrator 19.2.0, SVG Export Plug-In . SVG Version: 6.00 Build 0)  -->
<svg version="1.1" id="Layer_2" xmlns="http://www.w3.org/2000/svg" xmlns:xlink="http://www.w3.org/1999/xlink" x="0px" y="0px"
	 viewBox="0 0 310 310" style="enable-background:new 0 0 310 310;" xml:space="preserve">
<style type="text/css">
	.st0{fill:#6B6B6B;}
	.st1{fill:#59C15E;}
	.st2{fill:#FFFFFF;}
	.st3{fill:#343434;}
	.st4{fill:#3EA647;}
	.st5{fill:#71E971;}
	.st6{fill:#CACCCA;}
	.st7{fill:none;}
	.st8{clip-path:url(#SVGID_2_);fill:#71E971;}
	.st9{clip-path:url(#SVGID_4_);fill:#A0A0A0;}
	.st10{clip-path:url(#SVGID_6_);fill:#A0A0A0;}
	.st11{clip-path:url(#SVGID_8_);fill:#71E971;}
	.st12{clip-path:url(#SVGID_10_);fill:#71E971;}
	.st13{clip-path:url(#SVGID_12_);fill:#71E971;}
	.st14{clip-path:url(#SVGID_14_);fill:#A0A0A0;}
	.st15{clip-path:url(#SVGID_16_);fill:#A0A0A0;}
	.st16{clip-path:url(#SVGID_18_);fill:#71E971;}
	.st17{clip-path:url(#SVGID_20_);fill:#71E971;}
	.st18{clip-path:url(#SVGID_22_);fill:#A0A0A0;}
	.st19{clip-path:url(#SVGID_24_);fill:#71E971;}
	.st20{clip-path:url(#SVGID_26_);fill:#71E971;}
	.st21{clip-path:url(#SVGID_28_);fill:#71E971;}
	.st22{clip-path:url(#SVGID_30_);fill:#71E971;}
	.st23{clip-path:url(#SVGID_32_);fill:#A0A0A0;}
	.st24{clip-path:url(#SVGID_34_);fill:#A0A0A0;}
	.st25{clip-path:url(#SVGID_36_);fill:#71E971;}
	.st26{clip-path:url(#SVGID_38_);fill:#71E971;}
	.st27{clip-path:url(#SVGID_40_);fill:#A0A0A0;}
	.st28{clip-path:url(#SVGID_42_);fill:#71E971;}
	.st29{clip-path:url(#SVGID_44_);fill:#71E971;}
	.st30{clip-path:url(#SVGID_46_);fill:#71E971;}
	.st31{clip-path:url(#SVGID_48_);fill:#71E971;}
	.st32{clip-path:url(#SVGID_50_);fill:#71E971;}
	.st33{clip-path:url(#SVGID_52_);fill:#71E971;}
	.st34{clip-path:url(#SVGID_54_);fill:#A0A0A0;}
	.st35{clip-path:url(#SVGID_56_);fill:#71E971;}
	.st36{clip-path:url(#SVGID_58_);fill:#71E971;}
	.st37{clip-path:url(#SVGID_60_);fill:#A0A0A0;}
	.st38{clip-path:url(#SVGID_62_);fill:#71E971;}
	.st39{clip-path:url(#SVGID_64_);fill:#71E971;}
	.st40{clip-path:url(#SVGID_66_);fill:#71E971;}
	.st41{clip-path:url(#SVGID_68_);fill:#71E971;}
	.st42{clip-path:url(#SVGID_70_);fill:#71E971;}
	.st43{clip-path:url(#SVGID_72_);fill:#71E971;}
	.st44{clip-path:url(#SVGID_74_);fill:#A0A0A0;}
	.st45{clip-path:url(#SVGID_76_);fill:#A0A0A0;}
	.st46{clip-path:url(#SVGID_78_);fill:#A0A0A0;}
	.st47{clip-path:url(#SVGID_80_);fill:#A0A0A0;}
	.st48{clip-path:url(#SVGID_82_);fill:#71E971;}
	.st49{clip-path:url(#SVGID_84_);fill:#71E971;}
	.st50{clip-path:url(#SVGID_86_);fill:#71E971;}
	.st51{clip-path:url(#SVGID_88_);fill:#71E971;}
	.st52{clip-path:url(#SVGID_90_);fill:#71E971;}
	.st53{clip-path:url(#SVGID_92_);fill:#71E971;}
	.st54{clip-path:url(#SVGID_94_);fill:#71E971;}
	.st55{clip-path:url(#SVGID_96_);fill:#71E971;}
	.st56{clip-path:url(#SVGID_98_);fill:#71E971;}
</style>
<g>
	<g>
		<path class="st0" d="M267.4,217.9c-0.3-17.6,2.3-23.3,4.4-27.9c1.3-2.9,2.4-5.2,2.4-10.1c0-18.7-25.5-29.1-25.8-29.2l1.2-2.9
			c0.3,0.1,7,2.8,13.8,8.1c9.2,7.1,14,15.4,14,24.1c0,5.6-1.3,8.4-2.7,11.4c-2,4.3-4.4,9.6-4.1,26.5L267.4,217.9z"/>
	</g>
	<g>
		<rect x="94.7" y="186" class="st1" width="62.8" height="42.9"/>
		<path class="st0" d="M158.4,229.8H93.7v-44.7h64.7V229.8z M95.6,227.9h60.9v-41H95.6V227.9z"/>
	</g>
	<g>
		<path class="st1" d="M177.4,237.6v-8.5c0-2.3-1.9-4.1-4.1-4.1H78.8c-2.3,0-4.1,1.9-4.1,4.1v8.5H177.4z"/>
		<path class="st0" d="M178.4,238.6H73.7v-9.5c0-2.8,2.3-5.1,5.1-5.1h94.5c2.8,0,5.1,2.3,5.1,5.1L178.4,238.6L178.4,238.6z
			 M75.6,236.7h100.9v-7.6c0-1.8-1.4-3.2-3.2-3.2H78.8c-1.8,0-3.2,1.4-3.2,3.2V236.7z"/>
	</g>
	<g>
		<g>
			<path class="st1" d="M234.5,185.9c0,2.3-1.9,4.1-4.1,4.1H21.7c-2.3,0-4.1-1.9-4.1-4.1V43.7c0-2.3,1.9-4.1,4.1-4.1h208.7
				c2.3,0,4.1,1.9,4.1,4.1L234.5,185.9L234.5,185.9z"/>
			<path class="st0" d="M230.4,190.4H21.7c-2.5,0-4.5-2-4.5-4.5V43.7c0-2.5,2-4.5,4.5-4.5h208.7c2.5,0,4.5,2,4.5,4.5v142.2
				C234.9,188.4,232.9,190.4,230.4,190.4z M21.7,39.9c-2.1,0-3.8,1.7-3.8,3.8v142.2c0,2.1,1.7,3.8,3.8,3.8h208.7
				c2.1,0,3.8-1.7,3.8-3.8V43.7c0-2.1-1.7-3.8-3.8-3.8L21.7,39.9L21.7,39.9z"/>
		</g>
		<g>
			<path class="st1" d="M234.5,185.9c0,2.3-1.9,4.1-4.1,4.1H21.7c-2.3,0-4.1-1.9-4.1-4.1V43.7c0-2.3,1.9-4.1,4.1-4.1h208.7
				c2.3,0,4.1,1.9,4.1,4.1L234.5,185.9L234.5,185.9z"/>
			<path class="st0" d="M230.4,191.6H21.7c-3.1,0-5.7-2.6-5.7-5.7V43.7c0-3.1,2.6-5.7,5.7-5.7h208.7c3.1,0,5.7,2.6,5.7,5.7v142.2
				C236.1,189.1,233.5,191.6,230.4,191.6z M21.7,41.2c-1.4,0-2.6,1.2-2.6,2.6v142.2c0,1.4,1.2,2.6,2.6,2.6h208.7
				c1.4,0,2.6-1.2,2.6-2.6V43.7c0-1.4-1.2-2.6-2.6-2.6L21.7,41.2L21.7,41.2z"/>
		</g>
	</g>
	<g>
		<rect x="29.5" y="50.9" class="st2" width="193.1" height="127.8"/>
		<path class="st3" d="M224.2,180.3H28v-131h196.2V180.3z M31.1,177.2h190V52.5h-190V177.2z"/>
	</g>
	<g>
		<g>
			<path class="st2" d="M294.5,272.1c0,2.3-1.9,4.1-4.1,4.1H123.6c-2.3,0-4.1-1.9-4.1-4.1v-60.6c0-2.3,1.9-4.1,4.1-4.1h166.7
				c2.3,0,4.1,1.9,4.1,4.1L294.5,272.1L294.5,272.1z"/>
			<path class="st3" d="M290.3,276.6H123.6c-2.5,0-4.5-2-4.5-4.5v-60.6c0-2.5,2-4.5,4.5-4.5h166.7c2.5,0,4.5,2,4.5,4.5v60.6
				C294.8,274.6,292.8,276.6,290.3,276.6z M123.6,207.7c-2.1,0-3.8,1.7-3.8,3.8v60.6c0,2.1,1.7,3.8,3.8,3.8h166.7
				c2.1,0,3.8-1.7,3.8-3.8v-60.6c0-2.1-1.7-3.8-3.8-3.8L123.6,207.7L123.6,207.7z"/>
		</g>
		<g>
			<path class="st3" d="M290.3,277.8H123.6c-3.1,0-5.7-2.6-5.7-5.7v-60.6c0-3.1,2.6-5.7,5.7-5.7h166.7c3.1,0,5.7,2.6,5.7,5.7v60.6
				C296,275.3,293.5,277.8,290.3,277.8z M123.6,209c-1.4,0-2.6,1.2-2.6,2.6v60.6c0,1.4,1.2,2.6,2.6,2.6h166.7c1.4,0,2.6-1.2,2.6-2.6
				v-60.6c0-1.4-1.2-2.6-2.6-2.6L123.6,209L123.6,209z"/>
		</g>
	</g>
	<g>
		<rect x="132.1" y="218.6" class="st0" width="74.5" height="44.8"/>
		<path class="st3" d="M207.6,264.4h-76.4v-46.7h76.4V264.4z M133.1,262.5h72.6v-42.9h-72.6V262.5z"/>
	</g>
	<g>
		<g>
			<circle class="st4" cx="230.8" cy="226" r="3.2"/>
			<path class="st0" d="M230.8,230.1c-2.3,0-4.1-1.8-4.1-4.1c0-2.3,1.8-4.1,4.1-4.1s4.1,1.8,4.1,4.1
				C234.9,228.3,233,230.1,230.8,230.1z M230.8,223.8c-1.2,0-2.2,1-2.2,2.2s1,2.2,2.2,2.2s2.2-1,2.2-2.2S232,223.8,230.8,223.8z"/>
		</g>
		<g>
			<circle class="st5" cx="230.8" cy="241" r="3.2"/>
			<path class="st0" d="M230.8,245.1c-2.3,0-4.1-1.8-4.1-4.1c0-2.3,1.8-4.1,4.1-4.1c2.3,0,4.1,1.8,4.1,4.1
				C234.9,243.2,233,245.1,230.8,245.1z M230.8,238.8c-1.2,0-2.2,1-2.2,2.2s1,2.2,2.2,2.2s2.2-1,2.2-2.2S232,238.8,230.8,238.8z"/>
		</g>
		<g>
			<circle class="st5" cx="230.8" cy="256" r="3.2"/>
			<path class="st0" d="M230.8,260.1c-2.3,0-4.1-1.8-4.1-4.1s1.8-4.1,4.1-4.1c2.3,0,4.1,1.8,4.1,4.1S233,260.1,230.8,260.1z
				 M230.8,253.7c-1.2,0-2.2,1-2.2,2.2c0,1.2,1,2.2,2.2,2.2s2.2-1,2.2-2.2C233,254.7,232,253.7,230.8,253.7z"/>
		</g>
		<g>
			<circle class="st5" cx="252" cy="233.5" r="3.2"/>
			<path class="st0" d="M252,237.6c-2.3,0-4.1-1.8-4.1-4.1c0-2.3,1.8-4.1,4.1-4.1c2.3,0,4.1,1.8,4.1,4.1
				C256.1,235.8,254.2,237.6,252,237.6z M252,231.3c-1.2,0-2.2,1-2.2,2.2c0,1.2,1,2.2,2.2,2.2c1.2,0,2.2-1,2.2-2.2
				C254.2,232.3,253.2,231.3,252,231.3z"/>
		</g>
		<g>
			<circle class="st4" cx="252" cy="248.5" r="3.2"/>
			<path class="st0" d="M252,252.6c-2.3,0-4.1-1.8-4.1-4.1c0-2.3,1.8-4.1,4.1-4.1c2.3,0,4.1,1.8,4.1,4.1
				C256.1,250.7,254.2,252.6,252,252.6z M252,246.2c-1.2,0-2.2,1-2.2,2.2c0,1.2,1,2.2,2.2,2.2c1.2,0,2.2-1,2.2-2.2
				C254.2,247.2,253.2,246.2,252,246.2z"/>
		</g>
		<g>
			<g>
				<circle class="st5" cx="273.2" cy="226" r="3.2"/>
				<path class="st0" d="M273.2,230.1c-2.3,0-4.1-1.8-4.1-4.1c0-2.3,1.8-4.1,4.1-4.1s4.1,1.8,4.1,4.1
					C277.3,228.3,275.5,230.1,273.2,230.1z M273.2,223.8c-1.2,0-2.2,1-2.2,2.2s1,2.2,2.2,2.2s2.2-1,2.2-2.2S274.4,223.8,273.2,223.8
					z"/>
			</g>
			<g>
				<circle class="st4" cx="273.2" cy="241" r="3.2"/>
				<path class="st0" d="M273.2,245.1c-2.3,0-4.1-1.8-4.1-4.1c0-2.3,1.8-4.1,4.1-4.1c2.3,0,4.1,1.8,4.1,4.1
					C277.3,243.2,275.5,245.1,273.2,245.1z M273.2,238.8c-1.2,0-2.2,1-2.2,2.2s1,2.2,2.2,2.2s2.2-1,2.2-2.2S274.4,238.8,273.2,238.8
					z"/>
			</g>
			<g>
				<circle class="st5" cx="273.2" cy="256" r="3.2"/>
				<path class="st0" d="M273.2,260.1c-2.3,0-4.1-1.8-4.1-4.1s1.8-4.1,4.1-4.1c2.3,0,4.1,1.8,4.1,4.1S275.5,260.1,273.2,260.1z
					 M273.2,253.7c-1.2,0-2.2,1-2.2,2.2c0,1.2,1,2.2,2.2,2.2s2.2-1,2.2-2.2C275.4,254.7,274.4,253.7,273.2,253.7z"/>
			</g>
		</g>
		<g>
			<path class="st0" d="M252,249.4c-0.2,0-0.5-0.1-0.7-0.3l-21.2-22.5c-0.4-0.4-0.3-1,0-1.3c0.4-0.4,1-0.3,1.3,0l21.2,22.5
				c0.4,0.4,0.3,1,0,1.3C252.4,249.3,252.2,249.4,252,249.4z"/>
		</g>
		<g>
			<path class="st0" d="M252,234.4c-0.1,0-0.2,0-0.3-0.1l-21.2-7.5c-0.5-0.2-0.7-0.7-0.6-1.2c0.2-0.5,0.7-0.7,1.2-0.6l21.2,7.5
				c0.5,0.2,0.7,0.7,0.6,1.2C252.7,234.2,252.4,234.4,252,234.4z"/>
		</g>
		<g>
			<path class="st0" d="M230.8,241.9c-0.4,0-0.7-0.2-0.9-0.6c-0.2-0.5,0.1-1,0.6-1.2l21.2-7.5c0.5-0.2,1,0.1,1.2,0.6
				c0.2,0.5-0.1,1-0.6,1.2l-21.2,7.5C231,241.9,230.9,241.9,230.8,241.9z"/>
		</g>
		<g>
			<path class="st0" d="M252,249.4c-0.1,0-0.2,0-0.3-0.1l-21.2-7.5c-0.5-0.2-0.7-0.7-0.6-1.2c0.2-0.5,0.7-0.7,1.2-0.6l21.2,7.5
				c0.5,0.2,0.7,0.7,0.6,1.2C252.7,249.2,252.4,249.4,252,249.4z"/>
		</g>
		<g>
			<path class="st0" d="M230.8,256.9c-0.2,0-0.5-0.1-0.6-0.3c-0.4-0.4-0.4-0.9,0-1.3l21.2-22.5c0.4-0.4,0.9-0.4,1.3,0
				c0.4,0.4,0.4,0.9,0,1.3l-21.2,22.5C231.3,256.8,231,256.9,230.8,256.9z"/>
		</g>
		<g>
			<path class="st0" d="M230.8,256.9c-0.4,0-0.7-0.2-0.9-0.6c-0.2-0.5,0.1-1,0.6-1.2l21.2-7.5c0.5-0.2,1,0.1,1.2,0.6
				c0.2,0.5-0.1,1-0.6,1.2l-21.2,7.5C231,256.9,230.9,256.9,230.8,256.9z"/>
		</g>
		<g>
			<g>
				<path class="st0" d="M251.7,249.4c-0.2,0-0.5-0.1-0.6-0.3c-0.4-0.4-0.4-0.9,0-1.3l21.2-22.5c0.4-0.4,0.9-0.4,1.3,0
					c0.4,0.4,0.4,0.9,0,1.3l-21.2,22.5C252.2,249.3,252,249.4,251.7,249.4z"/>
			</g>
			<g>
				<path class="st0" d="M251.7,234.4c-0.4,0-0.7-0.2-0.9-0.6c-0.2-0.5,0.1-1,0.6-1.2l21.2-7.5c0.5-0.2,1,0.1,1.2,0.6
					c0.2,0.5-0.1,1-0.6,1.2l-21.2,7.5C251.9,234.4,251.8,234.4,251.7,234.4z"/>
			</g>
			<g>
				<path class="st0" d="M272.9,241.9c-0.1,0-0.2,0-0.3-0.1l-21.2-7.5c-0.5-0.2-0.7-0.7-0.6-1.2c0.2-0.5,0.7-0.7,1.2-0.6l21.2,7.5
					c0.5,0.2,0.7,0.7,0.6,1.2C273.7,241.7,273.3,241.9,272.9,241.9z"/>
			</g>
			<g>
				<path class="st0" d="M251.7,249.4c-0.4,0-0.7-0.2-0.9-0.6c-0.2-0.5,0.1-1,0.6-1.2l21.2-7.5c0.5-0.2,1,0.1,1.2,0.6
					c0.2,0.5-0.1,1-0.6,1.2l-21.2,7.5C251.9,249.4,251.8,249.4,251.7,249.4z"/>
			</g>
			<g>
				<path class="st0" d="M272.9,256.9c-0.2,0-0.5-0.1-0.7-0.3L251,234.1c-0.4-0.4-0.3-1,0-1.3c0.4-0.4,1-0.3,1.3,0l21.2,22.5
					c0.4,0.4,0.3,1,0,1.3C273.4,256.8,273.2,256.9,272.9,256.9z"/>
			</g>
			<g>
				<path class="st0" d="M272.9,256.9c-0.1,0-0.2,0-0.3-0.1l-21.2-7.5c-0.5-0.2-0.7-0.7-0.6-1.2c0.2-0.5,0.7-0.7,1.2-0.6l21.2,7.5
					c0.5,0.2,0.7,0.7,0.6,1.2C273.7,256.7,273.3,256.9,272.9,256.9z"/>
			</g>
		</g>
	</g>
	<path class="st3" d="M249.6,154c-1.1,1.6-3.3,2.1-4.9,1L201,126c-1.6-1.1-2.1-3.3-1-4.9l4.2-6.3c1.1-1.6,3.3-2.1,4.9-1l43.7,29
		c1.6,1.1,2.1,3.3,1,4.9L249.6,154z"/>
	<g>
		<g>
			<rect x="156.1" y="219.6" class="st6" width="1.9" height="1.9"/>
		</g>
		<g>
			<path class="st6" d="M158,256.8h-1.9v-3.5h1.9V256.8z M158,249.8h-1.9v-3.5h1.9V249.8z M158,242.7h-1.9v-3.5h1.9V242.7z
				 M158,235.6h-1.9v-3.5h1.9V235.6z M158,228.6h-1.9V225h1.9V228.6z"/>
		</g>
		<g>
			<rect x="156.1" y="260.4" class="st6" width="1.9" height="1.9"/>
		</g>
	</g>
	<g>
		<g>
			<rect x="181" y="219.6" class="st6" width="1.9" height="1.9"/>
		</g>
		<g>
			<path class="st6" d="M182.8,256.8H181v-3.5h1.9V256.8z M182.8,249.8H181v-3.5h1.9V249.8z M182.8,242.7H181v-3.5h1.9V242.7z
				 M182.8,235.6H181v-3.5h1.9V235.6z M182.8,228.6H181V225h1.9V228.6z"/>
		</g>
		<g>
			<rect x="181" y="260.4" class="st6" width="1.9" height="1.9"/>
		</g>
	</g>
	<g>
		<g>
			<line class="st7" x1="132.1" y1="218" x2="132.1" y2="263.3"/>
		</g>
		<g>
			<g>
				<rect x="131.2" y="218" class="st3" width="1.9" height="1.9"/>
			</g>
			<g>
				<path class="st3" d="M133.1,257.7h-1.9v-3.8h1.9V257.7z M133.1,250.1h-1.9v-3.8h1.9V250.1z M133.1,242.6h-1.9v-3.8h1.9V242.6z
					 M133.1,235h-1.9v-3.8h1.9V235z M133.1,227.5h-1.9v-3.8h1.9V227.5z"/>
			</g>
			<g>
				<rect x="131.2" y="261.4" class="st3" width="1.9" height="1.9"/>
			</g>
		</g>
	</g>
	<g>
		<path class="st5" d="M207,252c-6.8,0-10.1-5.6-13.3-10.9c-3.1-5.2-6-10-11.7-10c-5.7,0-8.6,4.9-11.7,10
			c-3.2,5.4-6.5,10.9-13.3,10.9c-6.8,0-10.1-5.6-13.3-10.9c-3.1-5.2-6-10-11.7-10v-1.9c6.8,0,10.1,5.6,13.3,10.9
			c3.1,5.2,6,10,11.7,10c5.7,0,8.6-4.9,11.7-10c3.2-5.4,6.5-10.9,13.3-10.9c6.8,0,10.1,5.6,13.3,10.9c3.1,5.2,6,10,11.7,10V252z"/>
	</g>
	<g>
		<path class="st3" d="M207.6,264.4h-76.4v-46.7h76.4V264.4z M133.1,262.5h72.6v-42.9h-72.6V262.5z"/>
	</g>
	<g>
		<g>
			<defs>
				<circle id="SVGID_1_" cx="173.5" cy="99" r="38.7"/>
			</defs>
			<clipPath id="SVGID_2_">
				<use xlink:href="#SVGID_1_"  style="overflow:visible;"/>
			</clipPath>
			<circle class="st8" cx="173.4" cy="72.4" r="3.4"/>
		</g>
		<g>
			<defs>
				<circle id="SVGID_3_" cx="173.5" cy="99" r="38.7"/>
			</defs>
			<clipPath id="SVGID_4_">
				<use xlink:href="#SVGID_3_"  style="overflow:visible;"/>
			</clipPath>
			<circle class="st9" cx="173.4" cy="82" r="3.4"/>
		</g>
		<g>
			<defs>
				<circle id="SVGID_5_" cx="173.5" cy="99" r="38.7"/>
			</defs>
			<clipPath id="SVGID_6_">
				<use xlink:href="#SVGID_5_"  style="overflow:visible;"/>
			</clipPath>
			<circle class="st10" cx="173.4" cy="91.7" r="3.4"/>
		</g>
		<g>
			<defs>
				<circle id="SVGID_7_" cx="173.5" cy="99" r="38.7"/>
			</defs>
			<clipPath id="SVGID_8_">
				<use xlink:href="#SVGID_7_"  style="overflow:visible;"/>
			</clipPath>
			<circle class="st11" cx="173.4" cy="101.4" r="3.4"/>
		</g>
		<g>
			<defs>
				<circle id="SVGID_9_" cx="173.5" cy="99" r="38.7"/>
			</defs>
			<clipPath id="SVGID_10_">
				<use xlink:href="#SVGID_9_"  style="overflow:visible;"/>
			</clipPath>
			<circle class="st12" cx="173.4" cy="111.1" r="3.4"/>
		</g>
		<g>
			<defs>
				<circle id="SVGID_11_" cx="173.5" cy="99" r="38.7"/>
			</defs>
			<clipPath id="SVGID_12_">
				<use xlink:href="#SVGID_11_"  style="overflow:visible;"/>
			</clipPath>
			<circle class="st13" cx="173.4" cy="120.8" r="3.4"/>
		</g>
		<g>
			<defs>
				<circle id="SVGID_13_" cx="173.5" cy="99" r="38.7"/>
			</defs>
			<clipPath id="SVGID_14_">
				<use xlink:href="#SVGID_13_"  style="overflow:visible;"/>
			</clipPath>
			<circle class="st14" cx="173.4" cy="130.5" r="3.4"/>
		</g>
		<g>
			<defs>
				<circle id="SVGID_15_" cx="173.5" cy="99" r="38.7"/>
			</defs>
			<clipPath id="SVGID_16_">
				<use xlink:href="#SVGID_15_"  style="overflow:visible;"/>
			</clipPath>
			<circle class="st15" cx="164.8" cy="72.4" r="3.4"/>
		</g>
		<g>
			<defs>
				<circle id="SVGID_17_" cx="173.5" cy="99" r="38.7"/>
			</defs>
			<clipPath id="SVGID_18_">
				<use xlink:href="#SVGID_17_"  style="overflow:visible;"/>
			</clipPath>
			<circle class="st16" cx="164.8" cy="82" r="3.4"/>
		</g>
		<g>
			<defs>
				<circle id="SVGID_19_" cx="173.5" cy="99" r="38.7"/>
			</defs>
			<clipPath id="SVGID_20_">
				<use xlink:href="#SVGID_19_"  style="overflow:visible;"/>
			</clipPath>
			<circle class="st17" cx="164.8" cy="91.7" r="3.4"/>
		</g>
		<g>
			<defs>
				<circle id="SVGID_21_" cx="173.5" cy="99" r="38.7"/>
			</defs>
			<clipPath id="SVGID_22_">
				<use xlink:href="#SVGID_21_"  style="overflow:visible;"/>
			</clipPath>
			<circle class="st18" cx="164.8" cy="101.4" r="3.4"/>
		</g>
		<g>
			<defs>
				<circle id="SVGID_23_" cx="173.5" cy="99" r="38.7"/>
			</defs>
			<clipPath id="SVGID_24_">
				<use xlink:href="#SVGID_23_"  style="overflow:visible;"/>
			</clipPath>
			<circle class="st19" cx="164.8" cy="111.1" r="3.4"/>
		</g>
		<g>
			<defs>
				<circle id="SVGID_25_" cx="173.5" cy="99" r="38.7"/>
			</defs>
			<clipPath id="SVGID_26_">
				<use xlink:href="#SVGID_25_"  style="overflow:visible;"/>
			</clipPath>
			<circle class="st20" cx="164.8" cy="120.8" r="3.4"/>
		</g>
		<g>
			<defs>
				<circle id="SVGID_27_" cx="173.5" cy="99" r="38.7"/>
			</defs>
			<clipPath id="SVGID_28_">
				<use xlink:href="#SVGID_27_"  style="overflow:visible;"/>
			</clipPath>
			<circle class="st21" cx="164.8" cy="130.5" r="3.4"/>
		</g>
		<g>
			<defs>
				<circle id="SVGID_29_" cx="173.5" cy="99" r="38.7"/>
			</defs>
			<clipPath id="SVGID_30_">
				<use xlink:href="#SVGID_29_"  style="overflow:visible;"/>
			</clipPath>
			<circle class="st22" cx="156.2" cy="72.4" r="3.4"/>
		</g>
		<g>
			<defs>
				<circle id="SVGID_31_" cx="173.5" cy="99" r="38.7"/>
			</defs>
			<clipPath id="SVGID_32_">
				<use xlink:href="#SVGID_31_"  style="overflow:visible;"/>
			</clipPath>
			<circle class="st23" cx="156.2" cy="82" r="3.4"/>
		</g>
		<g>
			<defs>
				<circle id="SVGID_33_" cx="173.5" cy="99" r="38.7"/>
			</defs>
			<clipPath id="SVGID_34_">
				<use xlink:href="#SVGID_33_"  style="overflow:visible;"/>
			</clipPath>
			<circle class="st24" cx="156.2" cy="91.7" r="3.4"/>
		</g>
		<g>
			<defs>
				<circle id="SVGID_35_" cx="173.5" cy="99" r="38.7"/>
			</defs>
			<clipPath id="SVGID_36_">
				<use xlink:href="#SVGID_35_"  style="overflow:visible;"/>
			</clipPath>
			<circle class="st25" cx="156.2" cy="101.4" r="3.4"/>
		</g>
		<g>
			<defs>
				<circle id="SVGID_37_" cx="173.5" cy="99" r="38.7"/>
			</defs>
			<clipPath id="SVGID_38_">
				<use xlink:href="#SVGID_37_"  style="overflow:visible;"/>
			</clipPath>
			<circle class="st26" cx="156.2" cy="111.1" r="3.4"/>
		</g>
		<g>
			<defs>
				<circle id="SVGID_39_" cx="173.5" cy="99" r="38.7"/>
			</defs>
			<clipPath id="SVGID_40_">
				<use xlink:href="#SVGID_39_"  style="overflow:visible;"/>
			</clipPath>
			<circle class="st27" cx="156.2" cy="120.8" r="3.4"/>
		</g>
		<g>
			<defs>
				<circle id="SVGID_41_" cx="173.5" cy="99" r="38.7"/>
			</defs>
			<clipPath id="SVGID_42_">
				<use xlink:href="#SVGID_41_"  style="overflow:visible;"/>
			</clipPath>
			<circle class="st28" cx="156.2" cy="130.5" r="3.4"/>
		</g>
		<g>
			<defs>
				<circle id="SVGID_43_" cx="173.5" cy="99" r="38.7"/>
			</defs>
			<clipPath id="SVGID_44_">
				<use xlink:href="#SVGID_43_"  style="overflow:visible;"/>
			</clipPath>
			<circle class="st29" cx="182" cy="72.4" r="3.4"/>
		</g>
		<g>
			<defs>
				<circle id="SVGID_45_" cx="173.5" cy="99" r="38.7"/>
			</defs>
			<clipPath id="SVGID_46_">
				<use xlink:href="#SVGID_45_"  style="overflow:visible;"/>
			</clipPath>
			<circle class="st30" cx="182" cy="82" r="3.4"/>
		</g>
		<g>
			<defs>
				<circle id="SVGID_47_" cx="173.5" cy="99" r="38.7"/>
			</defs>
			<clipPath id="SVGID_48_">
				<use xlink:href="#SVGID_47_"  style="overflow:visible;"/>
			</clipPath>
			<circle class="st31" cx="182" cy="91.7" r="3.4"/>
		</g>
		<g>
			<defs>
				<circle id="SVGID_49_" cx="173.5" cy="99" r="38.7"/>
			</defs>
			<clipPath id="SVGID_50_">
				<use xlink:href="#SVGID_49_"  style="overflow:visible;"/>
			</clipPath>
			<circle class="st32" cx="182" cy="101.4" r="3.4"/>
		</g>
		<g>
			<defs>
				<circle id="SVGID_51_" cx="173.5" cy="99" r="38.7"/>
			</defs>
			<clipPath id="SVGID_52_">
				<use xlink:href="#SVGID_51_"  style="overflow:visible;"/>
			</clipPath>
			<circle class="st33" cx="182" cy="111.1" r="3.4"/>
		</g>
		<g>
			<defs>
				<circle id="SVGID_53_" cx="173.5" cy="99" r="38.7"/>
			</defs>
			<clipPath id="SVGID_54_">
				<use xlink:href="#SVGID_53_"  style="overflow:visible;"/>
			</clipPath>
			<circle class="st34" cx="182" cy="120.8" r="3.4"/>
		</g>
		<g>
			<defs>
				<circle id="SVGID_55_" cx="173.5" cy="99" r="38.7"/>
			</defs>
			<clipPath id="SVGID_56_">
				<use xlink:href="#SVGID_55_"  style="overflow:visible;"/>
			</clipPath>
			<circle class="st35" cx="182" cy="130.5" r="3.4"/>
		</g>
		<g>
			<defs>
				<circle id="SVGID_57_" cx="173.5" cy="99" r="38.7"/>
			</defs>
			<clipPath id="SVGID_58_">
				<use xlink:href="#SVGID_57_"  style="overflow:visible;"/>
			</clipPath>
			<circle class="st36" cx="190.6" cy="72.4" r="3.4"/>
		</g>
		<g>
			<defs>
				<circle id="SVGID_59_" cx="173.5" cy="99" r="38.7"/>
			</defs>
			<clipPath id="SVGID_60_">
				<use xlink:href="#SVGID_59_"  style="overflow:visible;"/>
			</clipPath>
			<circle class="st37" cx="190.6" cy="82.7" r="3.4"/>
		</g>
		<g>
			<defs>
				<circle id="SVGID_61_" cx="173.5" cy="99" r="38.7"/>
			</defs>
			<clipPath id="SVGID_62_">
				<use xlink:href="#SVGID_61_"  style="overflow:visible;"/>
			</clipPath>
			<circle class="st38" cx="190.6" cy="91.7" r="3.4"/>
		</g>
		<g>
			<defs>
				<circle id="SVGID_63_" cx="173.5" cy="99" r="38.7"/>
			</defs>
			<clipPath id="SVGID_64_">
				<use xlink:href="#SVGID_63_"  style="overflow:visible;"/>
			</clipPath>
			<circle class="st39" cx="190.6" cy="101.4" r="3.4"/>
		</g>
		<g>
			<defs>
				<circle id="SVGID_65_" cx="173.5" cy="99" r="38.7"/>
			</defs>
			<clipPath id="SVGID_66_">
				<use xlink:href="#SVGID_65_"  style="overflow:visible;"/>
			</clipPath>
			<circle class="st40" cx="190.6" cy="111.1" r="3.4"/>
		</g>
		<g>
			<defs>
				<circle id="SVGID_67_" cx="173.5" cy="99" r="38.7"/>
			</defs>
			<clipPath id="SVGID_68_">
				<use xlink:href="#SVGID_67_"  style="overflow:visible;"/>
			</clipPath>
			<circle class="st41" cx="190.6" cy="120.8" r="3.4"/>
		</g>
		<g>
			<defs>
				<circle id="SVGID_69_" cx="173.5" cy="99" r="38.7"/>
			</defs>
			<clipPath id="SVGID_70_">
				<use xlink:href="#SVGID_69_"  style="overflow:visible;"/>
			</clipPath>
			<circle class="st42" cx="190.6" cy="130.5" r="3.4"/>
		</g>
		<g>
			<defs>
				<circle id="SVGID_71_" cx="173.5" cy="99" r="38.7"/>
			</defs>
			<clipPath id="SVGID_72_">
				<use xlink:href="#SVGID_71_"  style="overflow:visible;"/>
			</clipPath>
			<circle class="st43" cx="199.1" cy="72.4" r="3.4"/>
		</g>
		<g>
			<defs>
				<circle id="SVGID_73_" cx="173.5" cy="99" r="38.7"/>
			</defs>
			<clipPath id="SVGID_74_">
				<use xlink:href="#SVGID_73_"  style="overflow:visible;"/>
			</clipPath>
			<circle class="st44" cx="199.1" cy="82" r="3.4"/>
		</g>
		<g>
			<defs>
				<circle id="SVGID_75_" cx="173.5" cy="99" r="38.7"/>
			</defs>
			<clipPath id="SVGID_76_">
				<use xlink:href="#SVGID_75_"  style="overflow:visible;"/>
			</clipPath>
			<circle class="st45" cx="199.1" cy="91.7" r="3.4"/>
		</g>
		<g>
			<defs>
				<circle id="SVGID_77_" cx="173.5" cy="99" r="38.7"/>
			</defs>
			<clipPath id="SVGID_78_">
				<use xlink:href="#SVGID_77_"  style="overflow:visible;"/>
			</clipPath>
			<circle class="st46" cx="199.1" cy="101.4" r="3.4"/>
		</g>
		<g>
			<defs>
				<circle id="SVGID_79_" cx="173.5" cy="99" r="38.7"/>
			</defs>
			<clipPath id="SVGID_80_">
				<use xlink:href="#SVGID_79_"  style="overflow:visible;"/>
			</clipPath>
			<circle class="st47" cx="199.1" cy="111.1" r="3.4"/>
		</g>
		<g>
			<defs>
				<circle id="SVGID_81_" cx="173.5" cy="99" r="38.7"/>
			</defs>
			<clipPath id="SVGID_82_">
				<use xlink:href="#SVGID_81_"  style="overflow:visible;"/>
			</clipPath>
			<circle class="st48" cx="199.1" cy="120.8" r="3.4"/>
		</g>
		<g>
			<defs>
				<circle id="SVGID_83_" cx="173.5" cy="99" r="38.7"/>
			</defs>
			<clipPath id="SVGID_84_">
				<use xlink:href="#SVGID_83_"  style="overflow:visible;"/>
			</clipPath>
			<circle class="st49" cx="199.1" cy="130.5" r="3.4"/>
		</g>
		<g>
			<defs>
				<circle id="SVGID_85_" cx="173.5" cy="99" r="38.7"/>
			</defs>
			<clipPath id="SVGID_86_">
				<use xlink:href="#SVGID_85_"  style="overflow:visible;"/>
			</clipPath>
			<circle class="st50" cx="147.7" cy="72.4" r="3.4"/>
		</g>
		<g>
			<defs>
				<circle id="SVGID_87_" cx="173.5" cy="99" r="38.7"/>
			</defs>
			<clipPath id="SVGID_88_">
				<use xlink:href="#SVGID_87_"  style="overflow:visible;"/>
			</clipPath>
			<circle class="st51" cx="147.7" cy="82" r="3.4"/>
		</g>
		<g>
			<defs>
				<circle id="SVGID_89_" cx="173.5" cy="99" r="38.7"/>
			</defs>
			<clipPath id="SVGID_90_">
				<use xlink:href="#SVGID_89_"  style="overflow:visible;"/>
			</clipPath>
			<circle class="st52" cx="147.7" cy="91.7" r="3.4"/>
		</g>
		<g>
			<defs>
				<circle id="SVGID_91_" cx="173.5" cy="99" r="38.7"/>
			</defs>
			<clipPath id="SVGID_92_">
				<use xlink:href="#SVGID_91_"  style="overflow:visible;"/>
			</clipPath>
			<circle class="st53" cx="147.7" cy="101.4" r="3.4"/>
		</g>
		<g>
			<defs>
				<circle id="SVGID_93_" cx="173.5" cy="99" r="38.7"/>
			</defs>
			<clipPath id="SVGID_94_">
				<use xlink:href="#SVGID_93_"  style="overflow:visible;"/>
			</clipPath>
			<circle class="st54" cx="147.7" cy="111.1" r="3.4"/>
		</g>
		<g>
			<defs>
				<circle id="SVGID_95_" cx="173.5" cy="99" r="38.7"/>
			</defs>
			<clipPath id="SVGID_96_">
				<use xlink:href="#SVGID_95_"  style="overflow:visible;"/>
			</clipPath>
			<circle class="st55" cx="147.7" cy="120.8" r="3.4"/>
		</g>
		<g>
			<defs>
				<circle id="SVGID_97_" cx="173.5" cy="99" r="38.7"/>
			</defs>
			<clipPath id="SVGID_98_">
				<use xlink:href="#SVGID_97_"  style="overflow:visible;"/>
			</clipPath>
			<circle class="st56" cx="147.7" cy="130.5" r="3.4"/>
		</g>
	</g>
	<path class="st3" d="M173.6,69.1L173.6,69.1c5.9,0,11.6,1.7,16.5,5c6.7,4.4,11.2,11.2,12.8,19c1.6,7.8,0,15.8-4.4,22.5
		c-5.6,8.4-14.9,13.4-25,13.4c-5.9,0-11.6-1.7-16.5-5c-13.8-9.1-17.5-27.8-8.4-41.5C154.1,74.1,163.5,69.1,173.6,69.1 M173.6,60.3
		c-12.5,0-24.8,6.1-32.3,17.3c-11.8,17.8-7,41.8,10.9,53.7c6.6,4.4,14,6.5,21.4,6.5c12.5,0,24.8-6.1,32.3-17.3
		c11.8-17.8,7-41.8-10.9-53.7C188.4,62.4,180.9,60.3,173.6,60.3L173.6,60.3z"/>
</g>
</svg>
