<?xml version="1.0" encoding="utf-8"?>
<!-- Generator: Adobe Illustrator 19.2.0, SVG Export Plug-In . SVG Version: 6.00 Build 0)  -->
<svg version="1.1" id="Слой_1" xmlns="http://www.w3.org/2000/svg" xmlns:xlink="http://www.w3.org/1999/xlink" x="0px" y="0px"
	 viewBox="0 0 100 100" style="enable-background:new 0 0 100 100;" xml:space="preserve">
<style type="text/css">
	.st0{fill:#18BB3E;}
</style>
<title>Безымянный-1</title>
<path class="st0" d="M51.8,33.9c3.7-1,5.8-4.8,4.8-8.5s-4.8-5.8-8.5-4.8s-5.8,4.8-4.8,8.5c0.6,2.3,2.5,4.2,4.8,4.8l-25.4,64
	c-0.3,0.8,0.1,1.7,0.9,2c0.2,0.1,0.4,0.1,0.6,0.1h51.5c0.9,0,1.5-0.7,1.5-1.5c0-0.2,0-0.4-0.1-0.6L51.8,33.9z M60.9,73.4l-10.9,7
	l-10.9-7H60.9z M38.6,70.9L50,62.5l11.4,8.3H38.6z M52.2,60.9l5.5-4l4.5,11.3L52.2,60.9z M50,59.3l-4.5-3.3h9L50,59.3z M43.7,53.5
	L50,37.7l6.3,15.8C56.3,53.5,43.7,53.5,43.7,53.5z M47.8,60.9l-9.9,7.3L42.4,57L47.8,60.9z M35.5,74.2L47.6,82L27.3,95L35.5,74.2z
	 M50,83.5l21,13.4H29L50,83.5z M52.4,82l12.1-7.8L72.7,95L52.4,82z M46.2,27.3c0-2.1,1.7-3.8,3.8-3.8c2.1,0,3.8,1.7,3.8,3.8
	s-1.7,3.8-3.8,3.8C47.9,31.1,46.2,29.4,46.2,27.3"/>
<path class="st0" d="M33.8,49.2c0.7,0.5,1.7,0.4,2.2-0.3s0.4-1.7-0.3-2.2c-10.8-8-13-23.1-5.1-33.9s23.1-13,33.9-5.1
	c6.2,4.6,9.8,11.8,9.8,19.5c0,7.7-3.6,14.9-9.8,19.5c-0.7,0.5-0.8,1.5-0.3,2.2c0.5,0.7,1.5,0.8,2.2,0.3l0,0
	c12.1-9,14.7-26.1,5.7-38.2S45.9-3.6,33.7,5.4s-14.7,26.1-5.7,38.2C29.7,45.7,31.6,47.6,33.8,49.2"/>
<path class="st0" d="M61.3,39.2c-0.6,0.6-0.7,1.6-0.1,2.2c0.6,0.6,1.6,0.7,2.2,0.1l0,0c7.8-7.4,8.2-19.7,0.8-27.6
	s-19.7-8.2-27.6-0.8c-3.9,3.7-6.1,8.8-6.1,14.2c0,5.3,2.1,10.4,6,14.1c0.6,0.6,1.6,0.6,2.2,0c0.6-0.6,0.6-1.6,0-2.2
	c-6.6-6.3-6.8-16.7-0.5-23.2s16.7-6.8,23.2-0.5s6.8,16.7,0.5,23.2C61.7,38.9,61.5,39.1,61.3,39.2"/>
</svg>
