<?xml version="1.0" encoding="utf-8"?>
<!-- Generator: Adobe Illustrator 19.2.0, SVG Export Plug-In . SVG Version: 6.00 Build 0)  -->
<svg version="1.1" id="Facebook" xmlns="http://www.w3.org/2000/svg" xmlns:xlink="http://www.w3.org/1999/xlink" x="0px" y="0px"
	 viewBox="0 0 56 56" style="enable-background:new 0 0 56 56;" xml:space="preserve">
<style type="text/css">
	.st0{fill:#84848B;}
</style>
<path class="st0" d="M49.8,0H6.2C2.8,0,0,2.8,0,6.2v43.5C0,53.2,2.8,56,6.2,56h14.2c0.1-0.2,0.1-0.4,0.1-0.6c0-0.7,0-2.6,0-5.2
	c-8.4,1.9-10.2-4.1-10.2-4.1c-1.4-3.5-3.4-4.4-3.4-4.4c-2.8-1.9,0.2-1.9,0.2-1.9c3,0.2,4.7,3.1,4.7,3.1c2.7,4.7,7.1,3.3,8.8,2.5
	c0.1-1.5,0.8-3,1.9-4.1c-6.7-0.8-13.8-3.4-13.8-14.9c0-3,1.1-5.9,3.1-8.1c-0.9-2.6-0.8-5.5,0.3-8c0,0,2.5-0.8,8.3,3.1
	c5-1.4,10.2-1.4,15.2,0c5.8-3.9,8.3-3.1,8.3-3.1c1.1,2.5,1.2,5.4,0.3,8c2,2.2,3.2,5.1,3.1,8.1c0,11.6-7.1,14.2-13.8,14.9
	c1.1,0.9,2.1,2.8,2.1,5.6c0,4.1,0,7.3,0,8.3c0,0.2,0,0.4,0.1,0.6h14.2c3.4-0.1,6.1-2.8,6.1-6.2V6.2C56,2.8,53.2,0,49.8,0z"/>
</svg>
