<?xml version="1.0" encoding="utf-8"?>
<!-- Generator: Adobe Illustrator 19.2.0, SVG Export Plug-In . SVG Version: 6.00 Build 0)  -->
<svg version="1.1" id="Слой_1" xmlns="http://www.w3.org/2000/svg" xmlns:xlink="http://www.w3.org/1999/xlink" x="0px" y="0px"
	 viewBox="0 0 350 350" style="enable-background:new 0 0 350 350;" xml:space="preserve">
<style type="text/css">
	.st0{fill:#E2E2E2;}
	.st1{fill:#A0A0A0;}
	.st2{fill:#EFEFEF;}
	.st3{fill:#FFFFFF;}
	.st4{fill:#6B6B6B;}
	.st5{fill:#59C15E;}
	.st6{fill:#343434;}
	.st7{fill:#3EA647;}
	.st8{fill:#71E971;}
</style>
<g id="Layer_3">
	<g>
		
			<rect x="22.5" y="185.3" transform="matrix(0.99 -0.1413 0.1413 0.99 -30.5051 12.4542)" class="st0" width="99.8" height="71.4"/>
		<path class="st1" d="M28.1,264.4c-0.5,0-0.9-0.4-1-0.9L17,192.9c0-0.3,0-0.5,0.2-0.8c0.2-0.2,0.4-0.4,0.7-0.4l98.8-14.1
			c0.3,0,0.5,0,0.8,0.2c0.2,0.2,0.4,0.4,0.4,0.7l10.1,70.7c0,0.3,0,0.5-0.2,0.8c-0.2,0.2-0.4,0.4-0.7,0.4l-98.8,14.1
			C28.2,264.4,28.1,264.4,28.1,264.4z M19.1,193.6l9.8,68.7l96.8-13.8l-9.8-68.7L19.1,193.6z"/>
	</g>
	<g>
		<polygon class="st2" points="224.4,241.7 106.9,219.8 147.2,83 264.6,104.9 		"/>
		<path class="st1" d="M224.4,242.8c-0.1,0-0.1,0-0.2,0l-117.5-22c-0.3-0.1-0.5-0.2-0.7-0.5c-0.2-0.2-0.2-0.5-0.1-0.8l40.3-136.8
			c0.1-0.5,0.6-0.8,1.2-0.7l117.5,22c0.3,0.1,0.5,0.2,0.7,0.5c0.2,0.2,0.2,0.5,0.1,0.8L225.3,242
			C225.2,242.5,224.8,242.8,224.4,242.8z M108.2,219l115.5,21.6l39.7-134.8L147.9,84.2L108.2,219z"/>
	</g>
	<g>
		
			<rect x="45.4" y="52.9" transform="matrix(0.9632 -0.2689 0.2689 0.9632 -29.4868 33.3232)" class="st3" width="122.9" height="142.8"/>
		<path class="st4" d="M66.9,210.6c-0.4,0-0.9-0.3-1-0.7L27.5,72.3c-0.1-0.3,0-0.5,0.1-0.8s0.4-0.4,0.6-0.5L146.6,38
			c0.3-0.1,0.5,0,0.8,0.1c0.2,0.1,0.4,0.4,0.5,0.6l38.4,137.5c0.2,0.5-0.2,1.1-0.7,1.2L67.2,210.6C67.1,210.6,67,210.6,66.9,210.6z
			 M29.8,72.8l37.8,135.6L184,175.8L146.2,40.3L29.8,72.8z"/>
	</g>
	<g>
		<rect x="127.1" y="127" transform="matrix(0.843 -0.538 0.538 0.843 -46.297 97.5239)" class="st0" width="33.6" height="2"/>
	</g>
	<g>
		<rect x="58.9" y="112" transform="matrix(0.538 -0.843 0.843 0.538 -80.8826 110.01)" class="st0" width="2" height="33.6"/>
	</g>
	<g>
		<rect x="100.2" y="68" class="st0" width="2" height="18.9"/>
	</g>
	<g>
		<rect x="64.4" y="91.4" transform="matrix(0.538 -0.843 0.843 0.538 -55.9151 102.3217)" class="st0" width="2" height="21.5"/>
	</g>
	<g>
		<rect x="127.3" y="100.8" transform="matrix(0.843 -0.538 0.538 0.843 -33.0868 90.2673)" class="st0" width="21.5" height="2"/>
	</g>
	<g>
		<polygon class="st4" points="180.9,142.2 179.7,140.5 208.3,121.1 237.7,128.1 237.3,130.1 208.7,123.3 		"/>
	</g>
	<g>
		
			<rect x="218.7" y="119.8" transform="matrix(0.2322 -0.9727 0.9727 0.2322 41.391 314.1687)" class="st4" width="2" height="22.2"/>
	</g>
	<g>
		
			<rect x="214.7" y="127.2" transform="matrix(0.2322 -0.9727 0.9727 0.2322 33.8155 313.9421)" class="st4" width="2" height="16.8"/>
	</g>
	<g>
		
			<rect x="217.2" y="129.6" transform="matrix(0.2322 -0.9727 0.9727 0.2322 29.659 321.0912)" class="st4" width="2" height="24.4"/>
	</g>
	<g>
		
			<rect x="212.9" y="137.2" transform="matrix(0.2322 -0.9727 0.9727 0.2322 21.9091 320.4576)" class="st4" width="2" height="18.2"/>
	</g>
	<g>
		<path class="st4" d="M152,165.5c-1.6-15.4-21-15.6-21.2-15.6v-2c0.2,0,21.4,0.2,23.2,17.4L152,165.5z"/>
	</g>
	<g>
		<polygon class="st4" points="152.8,167.8 144,160.8 145.2,159.2 152.5,165 158.5,157.9 160.1,159.2 		"/>
	</g>
	<g>
		<g>
			<g>
				<path class="st1" d="M100.1,88.9l-1.2-1.6l1.6-1.2c0.4-0.3,0.8-0.3,1.2,0l1.6,1.2l-1.2,1.6l-1-0.8L100.1,88.9z"/>
			</g>
			<g>
				<path class="st1" d="M79.2,104.4l-1.2-1.6l3.5-2.6l1.2,1.6L79.2,104.4z M86.2,99.2L85,97.6l3.5-2.6l1.2,1.6L86.2,99.2z
					 M93.2,94.1L92,92.4l3.5-2.6l1.2,1.6L93.2,94.1z"/>
			</g>
			<g>
				<path class="st1" d="M74.5,109.4h-2v-2c0-0.3,0.2-0.6,0.4-0.8l1.6-1.2l1.2,1.6l-1.2,0.9V109.4z"/>
			</g>
			<g>
				<path class="st1" d="M74.5,131.4h-2v-3.7h2V131.4z M74.5,124.1h-2v-3.7h2V124.1z M74.5,116.7h-2V113h2V116.7z"/>
			</g>
			<g>
				<path class="st1" d="M74.6,139.1l-1.7-1.1c-0.3-0.2-0.5-0.5-0.5-0.8v-2h2v1.5l1.2,0.8L74.6,139.1z"/>
			</g>
			<g>
				<path class="st1" d="M95.8,153.1l-3.5-2.3l1.1-1.7l3.5,2.3L95.8,153.1z M88.8,148.4l-3.5-2.3l1.1-1.7l3.5,2.3L88.8,148.4z
					 M81.7,143.7l-3.5-2.3l1.1-1.7l3.5,2.3L81.7,143.7z"/>
			</g>
			<g>
				<path class="st1" d="M101.6,156.7c-0.2,0-0.4-0.1-0.6-0.2l-1.7-1.1l1.1-1.7l1.1,0.7l1.1-0.7l1.1,1.7l-1.7,1.1
					C102,156.7,101.8,156.7,101.6,156.7z"/>
			</g>
			<g>
				<path class="st1" d="M107.4,153.1l-1.1-1.7l3.5-2.3l1.1,1.7L107.4,153.1z M114.5,148.4l-1.1-1.7l3.5-2.3l1.1,1.7L114.5,148.4z
					 M121.5,143.7l-1.1-1.7l3.5-2.3l1.1,1.7L121.5,143.7z"/>
			</g>
			<g>
				<path class="st1" d="M128.6,139.1l-1.1-1.7l1.2-0.8v-1.5h2v2c0,0.3-0.2,0.7-0.5,0.8L128.6,139.1z"/>
			</g>
			<g>
				<path class="st1" d="M130.7,131.4h-2v-3.7h2V131.4z M130.7,124.1h-2v-3.7h2V124.1z M130.7,116.7h-2V113h2V116.7z"/>
			</g>
			<g>
				<path class="st1" d="M130.7,109.4h-2v-1.5l-1.2-0.9l1.2-1.6l1.6,1.2c0.3,0.2,0.4,0.5,0.4,0.8V109.4z"/>
			</g>
			<g>
				<path class="st1" d="M123.9,104.4l-3.6-2.6l1.2-1.6l3.6,2.6L123.9,104.4z M116.7,99.2l-3.6-2.6l1.2-1.6l3.6,2.6L116.7,99.2z
					 M109.4,94.1l-3.6-2.6l1.2-1.6l3.6,2.6L109.4,94.1z"/>
			</g>
		</g>
		<g>
			<g>
				<path class="st1" d="M101.6,126.9c-0.2,0-0.4-0.1-0.6-0.2l-1.7-1.1l1.1-1.7l1.1,0.7l1.1-0.7l1.1,1.7l-1.7,1.1
					C102,126.9,101.8,126.9,101.6,126.9z"/>
			</g>
			<g>
				<path class="st1" d="M95.8,123.3l-3.5-2.3l1.1-1.7l3.5,2.3L95.8,123.3z M88.8,118.7l-3.5-2.3l1.1-1.7l3.5,2.3L88.8,118.7z
					 M81.7,114l-3.5-2.3l1.1-1.7l3.5,2.3L81.7,114z"/>
			</g>
			<g>
				<path class="st1" d="M74.6,109.3l-1.7-1.1c-0.3-0.2-0.4-0.5-0.5-0.8c0-0.3,0.1-0.6,0.4-0.8l1.6-1.2l1.2,1.6l-0.5,0.3l0.5,0.3
					L74.6,109.3z"/>
			</g>
			<g>
				<path class="st1" d="M79.2,104.4l-1.2-1.6l3.5-2.6l1.2,1.6L79.2,104.4z M86.2,99.2L85,97.6l3.5-2.6l1.2,1.6L86.2,99.2z
					 M93.2,94.1L92,92.4l3.5-2.6l1.2,1.6L93.2,94.1z"/>
			</g>
			<g>
				<path class="st1" d="M100.1,88.9l-1.2-1.6l1.6-1.2c0.4-0.3,0.8-0.3,1.2,0l1.6,1.2l-1.2,1.6l-1-0.8L100.1,88.9z"/>
			</g>
			<g>
				<path class="st1" d="M123.9,104.4l-3.6-2.6l1.2-1.6l3.6,2.6L123.9,104.4z M116.7,99.2l-3.6-2.6l1.2-1.6l3.6,2.6L116.7,99.2z
					 M109.4,94.1l-3.6-2.6l1.2-1.6l3.6,2.6L109.4,94.1z"/>
			</g>
			<g>
				<path class="st1" d="M128.6,109.3l-1.1-1.7l0.5-0.3l-0.5-0.3l1.2-1.6l1.6,1.2c0.3,0.2,0.4,0.5,0.4,0.8c0,0.3-0.2,0.6-0.5,0.8
					L128.6,109.3z"/>
			</g>
			<g>
				<path class="st1" d="M107.4,123.3l-1.1-1.7l3.5-2.3l1.1,1.7L107.4,123.3z M114.5,118.7l-1.1-1.7l3.5-2.3l1.1,1.7L114.5,118.7z
					 M121.5,114l-1.1-1.7l3.5-2.3l1.1,1.7L121.5,114z"/>
			</g>
		</g>
		<g>
			<g>
				<rect x="100.6" y="125.9" class="st1" width="2" height="2"/>
			</g>
			<g>
				<path class="st1" d="M102.6,150h-2v-3.7h2V150z M102.6,142.6h-2V139h2V142.6z M102.6,135.3h-2v-3.7h2V135.3z"/>
			</g>
			<g>
				<rect x="100.6" y="153.7" class="st1" width="2" height="2"/>
			</g>
		</g>
	</g>
</g>
<g id="Layer_1">
	<g>
		<g>
			<path class="st5" d="M271.9,292.7c0,2.3-1.9,4.1-4.1,4.1H100.2c-2.3,0-4.1-1.9-4.1-4.1V179c0-2.3,1.9-4.1,4.1-4.1h167.5
				c2.3,0,4.1,1.9,4.1,4.1L271.9,292.7L271.9,292.7z"/>
			<path class="st4" d="M267.8,297.2H100.2c-2.5,0-4.5-2-4.5-4.5V179c0-2.5,2-4.5,4.5-4.5h167.5c2.5,0,4.5,2,4.5,4.5v113.7
				C272.3,295.2,270.2,297.2,267.8,297.2z M100.2,175.2c-2.1,0-3.8,1.7-3.8,3.8v113.7c0,2.1,1.7,3.8,3.8,3.8h167.5
				c2.1,0,3.8-1.7,3.8-3.8V179c0-2.1-1.7-3.8-3.8-3.8H100.2z"/>
		</g>
		<g>
			<path class="st4" d="M267.8,297.8H100.2c-2.8,0-5.1-2.3-5.1-5.1V179c0-2.8,2.3-5.1,5.1-5.1h167.5c2.8,0,5.1,2.3,5.1,5.1v113.7
				C272.9,295.5,270.6,297.8,267.8,297.8z M100.2,175.9c-1.7,0-3.1,1.4-3.1,3.1v113.7c0,1.7,1.4,3.1,3.1,3.1h167.5
				c1.7,0,3.1-1.4,3.1-3.1V179c0-1.7-1.4-3.1-3.1-3.1H100.2z"/>
		</g>
	</g>
	<g>
		<rect x="105.8" y="184.1" class="st3" width="156.5" height="103.6"/>
		<path class="st6" d="M263.9,289.3H104.1v-107h159.8L263.9,289.3L263.9,289.3z M107.5,286h153.1V185.7H107.5V286z"/>
	</g>
	<g>
		<polygon class="st7" points="191.3,276 163.2,257.4 163.2,227.6 191.3,246.2 		"/>
	</g>
	<g>
		<polygon class="st5" points="219.4,257.4 191.3,276 191.3,246.2 219.4,227.6 		"/>
	</g>
	<g>
		<polygon class="st8" points="191.3,246.2 163.2,227.6 190.9,207.2 219.4,227.6 		"/>
	</g>
	<g>
		<polygon class="st7" points="172.3,248.3 149.6,225.7 120.2,225.7 120.2,223.7 150.5,223.7 173.7,246.9 		"/>
	</g>
	<g>
		<rect x="120.2" y="217.3" class="st7" width="23.3" height="2"/>
	</g>
	<g>
		<rect x="120.2" y="211.9" class="st7" width="31.3" height="2"/>
	</g>
	<g>
		<rect x="120.2" y="206.4" class="st7" width="18.7" height="2"/>
	</g>
	<g>
		<rect x="105.8" y="191.1" class="st7" width="156.9" height="2"/>
	</g>
	<g>
		<rect x="105.8" y="184.1" class="st8" width="157" height="12.1"/>
		<path class="st6" d="M264.5,197.9H104.1v-15.5h160.4V197.9z M107.5,194.5h153.6v-8.7H107.5V194.5z"/>
	</g>
	<g>
		<circle class="st6" cx="127" cy="190.3" r="2.2"/>
	</g>
	<g>
		<circle class="st6" cx="119.7" cy="190.3" r="2.2"/>
	</g>
	<g>
		<circle class="st6" cx="112.4" cy="190.3" r="2.2"/>
	</g>
	<g>
		<g>
			<polygon class="st3" points="244.3,226.8 212.1,232.7 218,200.5 302.7,115.8 328.9,142.1 			"/>
			<path class="st6" d="M210,234.8l6.5-35.1l0.4-0.4l85.8-85.8l28.7,28.7l-86.2,86.2L210,234.8z M219.6,201.3l-5.4,29.3l29.3-5.4
				l83.1-83.1l-23.9-23.9L219.6,201.3z"/>
		</g>
		<g>
			<polygon class="st5" points="302.7,115.8 220.2,198.3 222.4,209.2 233.4,211.4 235.5,222.4 246.5,224.6 328.9,142.1 			"/>
			<path class="st6" d="M246.8,225.7l-12.2-2.4l-2.2-11l-11-2.2l-2.4-12.1l83.5-83.5l27.7,27.7L246.8,225.7z M236.4,221.5l9.8,2
				l81.3-81.3l-24.9-24.9l-81.3,81.3l2,9.8l11,2.2L236.4,221.5z"/>
		</g>
		<g>
			<polygon class="st6" points="213.9,222.9 212.1,232.7 221.9,230.9 			"/>
			<path class="st6" d="M210.8,234l2.4-13.1l10.7,10.7L210.8,234z M214.5,225l-1.2,6.5l6.5-1.2L214.5,225z"/>
		</g>
		<g>
			
				<rect x="302.8" y="114.1" transform="matrix(0.7071 -0.7071 0.7071 0.7071 -2.4491 259.5414)" class="st3" width="18.6" height="37.2"/>
			<path class="st6" d="M318.6,153.9l-27.7-27.7l14.6-14.6l27.7,27.7L318.6,153.9z M293.8,126.1l24.9,24.9l11.7-11.7l-24.9-24.9
				L293.8,126.1z"/>
		</g>
		<g>
			<path class="st5" d="M333.1,138c3-3.2,3-8.3-0.2-11.5l-14.6-14.6c-3.2-3.2-8.3-3.2-11.5-0.2l0,0l-0.2,0.2l-0.7,0.7l-9.4,9.4
				l26.3,26.3l9.4-9.4l0.7-0.7L333.1,138L333.1,138z"/>
			<path class="st6" d="M322.8,150.7L294.1,122l12.7-12.7l0.1,0.1c1.6-1.1,3.6-1.7,5.6-1.7c2.7,0,5.2,1,7,2.9l14.6,14.6
				c3.4,3.4,3.8,8.7,1.2,12.6l0.1,0.1l-2,2.1L322.8,150.7z M298.9,122l23.9,23.9l9.1-9.1c2.4-2.6,2.4-6.7-0.1-9.1l-14.6-14.6
				c-1.2-1.2-2.9-1.9-4.6-1.9c-1.7,0-3.3,0.6-4.5,1.8l-0.8,0.8L298.9,122z"/>
		</g>
	</g>
</g>
</svg>
