<?xml version="1.0" encoding="utf-8"?>
<!-- Generator: Adobe Illustrator 19.2.0, SVG Export Plug-In . SVG Version: 6.00 Build 0)  -->
<svg version="1.1" id="Layer_1" xmlns="http://www.w3.org/2000/svg" xmlns:xlink="http://www.w3.org/1999/xlink" x="0px" y="0px"
	 viewBox="0 0 350 350" style="enable-background:new 0 0 350 350;" xml:space="preserve">
<style type="text/css">
	.st0{fill:#343434;}
	.st1{fill:#DDB1B1;}
	.st2{fill:#59C15E;}
	.st3{fill:#6B6B6B;}
	.st4{fill:#FFFFFF;}
</style>
<g>
	<path class="st0" d="M128.3,278.2c-7,0-9.6-1.4-10.1-1.6l1.7-2.8c0,0,6,3,25.2-0.8c25.1-4.9,36.2-15.9,36.2-35.5
		c0-11.8-9.6-20.9-31-36.9c-1.6-1.2-3.1-2.3-4.6-3.4c-14.4-10.7-23.1-17.1-22.9-26.7c0.1-4.6,1.6-8.1,4.4-10.6
		c4.7-4.2,11.4-3.5,11.7-3.5l-0.3,3.3c-0.1,0-5.6-0.5-9.2,2.7c-2.1,1.8-3.2,4.6-3.2,8.2c-0.2,7.9,8,14,21.5,24
		c1.5,1.1,3,2.2,4.6,3.4c22.3,16.7,32.3,26.4,32.3,39.5c0,21.2-12.4,33.5-38.9,38.7C138.1,277.7,132.4,278.2,128.3,278.2z"/>
</g>
<g>
	<polygon class="st1" points="141.9,228.8 36.1,223.6 36.1,217.1 141.9,221.4 	"/>
</g>
<g>
	<g>
		<path class="st2" d="M145.9,327.4c-0.3,0-0.6,0-0.8-0.1L33.8,309.5c-2.8-0.5-5.1-3.1-5.1-6v-90.2c0-2.9,2.4-5.3,5.3-5.3l0.2,0
			l111.1,3.4c2.9,0.1,5.3,2.6,5.3,5.5v105.6C150.6,325.3,148.6,327.4,145.9,327.4z"/>
	</g>
	<g>
		<path class="st3" d="M34,209.6c0,0,0.1,0,0.1,0l111.1,3.4c2.1,0.1,3.7,1.8,3.7,3.9v105.6c0,1.9-1.4,3.2-3.1,3.2
			c-0.2,0-0.4,0-0.6,0L34.1,307.8c-2-0.3-3.7-2.3-3.7-4.3v-90.2C30.4,211.2,32,209.6,34,209.6 M34,206.3L34,206.3
			c-3.8,0-6.9,3.1-6.9,6.9v90.2c0,3.7,2.8,7,6.5,7.6l111.2,17.9c0.4,0.1,0.7,0.1,1.1,0.1c3.6,0,6.4-2.8,6.4-6.5V216.9
			c0-3.8-3.1-7-6.9-7.1l-111.1-3.4C34.2,206.3,34.1,206.3,34,206.3L34,206.3z"/>
	</g>
</g>
<g>
	<g>
		<polygon class="st4" points="37.7,299.3 37.7,218.8 139.8,223 139.8,314.7 		"/>
	</g>
	<g>
		<path class="st0" d="M39.4,220.5l98.8,4v88.3l-98.8-14.9V220.5 M36.1,217.1v83.6l105.4,15.9v-95.3L36.1,217.1L36.1,217.1z"/>
	</g>
</g>
<g>
	
		<rect x="87.6" y="175.1" transform="matrix(4.969822e-02 -0.9988 0.9988 4.969822e-02 -143.2 304.7499)" class="st0" width="2" height="105"/>
</g>
<g>
	<g>
		<g>
			<path class="st0" d="M43.8,239.4l5.2-2l-5.2-2.7v-3.8l7.9,4.8v3.8l-7.9,3.7V239.4z"/>
		</g>
		<g>
			<path class="st0" d="M52.8,246.2l9.9,0.8v2.5l-9.9-0.8V246.2z"/>
		</g>
	</g>
</g>
<g>
	<path class="st0" d="M215.6,160.3c-1.8,0-2.8,0-2.9,0l0.1-3.3c0.1,0,10.9,0.3,25.9-1.1c6.6-0.6,11.6-5.8,11.5-12.2
		c-0.1-6.4-5.7-13.7-21.1-14.8c-18.5-1.3-27.9-8.1-27.9-20.1c0-9.6,10.7-13.7,11.2-13.8l1.1,3.1l-0.6-1.5l0.6,1.5
		c-0.1,0-9,3.5-9,10.8c0,10.1,8.1,15.6,24.8,16.8c17.7,1.3,24.1,10.2,24.2,18.1c0.1,8.1-6.2,14.7-14.5,15.5
		C228.4,160.2,219.9,160.3,215.6,160.3z"/>
</g>
<g>
	<path class="st2" d="M222.3,155.9h-6.1v-4.5c0-4.1-3.4-7.5-7.5-7.5h-20.2v6.3h5.9v4.6h-5.9v6.6h5.9v4.6h-5.9v6.5h20.2
		c4.1,0,7.5-3.4,7.5-7.5v-4.5h6.1V155.9z"/>
	<path class="st0" d="M208.7,173.5h-21.2v-8.4h5.9v-2.6h-5.9v-8.5h5.9v-2.6h-5.9V143h21.2c4.7,0,8.5,3.8,8.5,8.5v3.5h6.1v6.6h-6.1
		v3.5C217.2,169.7,213.4,173.5,208.7,173.5z M189.5,171.5h19.2c3.6,0,6.5-2.9,6.5-6.5v-5.5h6.1v-2.6h-6.1v-5.5
		c0-3.6-2.9-6.5-6.5-6.5h-19.2v4.3h5.9v6.6h-5.9v4.6h5.9v6.6h-5.9V171.5z"/>
</g>
<g>
	<circle class="st2" cx="156" cy="111.4" r="5.8"/>
	<path class="st3" d="M156,118.2c-2.7,0-5.2-1.6-6.2-4.1c-1.4-3.4,0.2-7.4,3.6-8.9c0.8-0.4,1.7-0.5,2.6-0.5c2.7,0,5.2,1.6,6.2,4.1
		c1.4,3.4-0.2,7.4-3.6,8.9C157.8,118,156.9,118.2,156,118.2z M156,106.7c-0.6,0-1.3,0.1-1.9,0.4c-2.4,1-3.6,3.8-2.5,6.3
		c0.7,1.8,2.5,2.9,4.4,2.9c0.6,0,1.3-0.1,1.9-0.4c2.4-1,3.6-3.8,2.5-6.3C159.6,107.8,157.9,106.7,156,106.7z"/>
</g>
<g>
	
		<rect x="158.9" y="97.9" transform="matrix(0.9211 -0.3893 0.3893 0.9211 -23.8757 80.0452)" class="st3" width="53.4" height="2"/>
</g>
<g>
	<circle class="st2" cx="181.1" cy="29.3" r="5.8"/>
	<path class="st3" d="M181.1,36.1c-1.8,0-3.5-0.7-4.8-2c-2.6-2.6-2.6-6.9,0-9.6c1.3-1.3,3-2,4.8-2c1.8,0,3.5,0.7,4.8,2
		c2.6,2.6,2.6,6.9,0,9.6C184.6,35.4,182.9,36.1,181.1,36.1z M181.1,24.5c-1.3,0-2.5,0.5-3.4,1.4c-1.9,1.9-1.9,4.9,0,6.8
		c0.9,0.9,2.1,1.4,3.4,1.4c1.3,0,2.5-0.5,3.4-1.4c1.9-1.9,1.9-4.9,0-6.8C183.6,25,182.4,24.5,181.1,24.5z"/>
</g>
<g>
	<rect x="200" y="26.5" transform="matrix(0.7071 -0.7071 0.7071 0.7071 24.0915 156.4857)" class="st3" width="2" height="45.3"/>
</g>
<g>
	<circle class="st2" cx="213.9" cy="23.3" r="5.8"/>
	<path class="st3" d="M213.9,30.1c-3,0-5.6-2-6.5-4.8c-1.1-3.6,0.9-7.3,4.5-8.4c0.6-0.2,1.3-0.3,2-0.3c3,0,5.6,1.9,6.5,4.8
		c0.5,1.7,0.3,3.6-0.5,5.1c-0.9,1.6-2.3,2.8-4,3.3C215.2,30,214.6,30.1,213.9,30.1z M213.9,18.6c-0.5,0-0.9,0.1-1.4,0.2
		c-2.5,0.8-4,3.4-3.2,6c0.6,2,2.5,3.4,4.6,3.4c0.5,0,0.9-0.1,1.4-0.2c1.2-0.4,2.2-1.2,2.8-2.3c0.6-1.1,0.7-2.4,0.4-3.6
		C217.9,20,216,18.6,213.9,18.6z"/>
</g>
<g>
	<rect x="219.4" y="27.8" transform="matrix(0.9572 -0.2895 0.2895 0.9572 -3.5379 65.7279)" class="st3" width="2" height="34"/>
</g>
<g>
	
		<rect x="249.4" y="60.9" transform="matrix(0.9126 -0.4089 0.4089 0.9126 -1.1224 118.5919)" class="st3" width="54.8" height="2"/>
</g>
<g>
	<circle class="st2" cx="284.6" cy="168.2" r="5.8"/>
	<path class="st3" d="M284.6,175c-2.4,0-4.6-1.3-5.9-3.4c-0.9-1.6-1.1-3.4-0.7-5.1c0.5-1.7,1.6-3.2,3.1-4.1c1-0.6,2.2-0.9,3.4-0.9
		c2.4,0,4.6,1.3,5.9,3.4c1.9,3.2,0.8,7.4-2.5,9.2C287,174.7,285.8,175,284.6,175z M284.6,163.4c-0.8,0-1.7,0.2-2.4,0.6
		c-1.1,0.6-1.9,1.7-2.2,2.9c-0.3,1.2-0.2,2.5,0.5,3.6c0.9,1.5,2.4,2.4,4.1,2.4c0.8,0,1.7-0.2,2.4-0.6c2.3-1.3,3.1-4.2,1.7-6.5
		C287.9,164.4,286.3,163.4,284.6,163.4z"/>
</g>
<g>
	
		<rect x="262.6" y="95.8" transform="matrix(0.8633 -0.5046 0.5046 0.8633 -30.6625 151.0545)" class="st3" width="2" height="72.7"/>
</g>
<g>
	<circle class="st2" cx="302.3" cy="85" r="5.8"/>
	<path class="st3" d="M302.3,91.7c-0.2,0-0.3,0-0.5,0c-1.8-0.1-3.4-0.9-4.6-2.3c-1.2-1.4-1.8-3.1-1.7-4.9c0.2-3.7,3.5-6.5,7.2-6.3
		c1.8,0.1,3.4,0.9,4.6,2.3c1.2,1.4,1.8,3.1,1.7,4.9C308.8,89,305.8,91.7,302.3,91.7z M302.3,80.2c-2.5,0-4.6,2-4.8,4.5
		c-0.1,1.3,0.3,2.5,1.2,3.5c0.8,1,2,1.5,3.3,1.6c2.6,0.2,4.9-1.8,5.1-4.4c0.1-1.3-0.3-2.5-1.2-3.5c-0.8-1-2-1.5-3.3-1.6
		C302.5,80.2,302.4,80.2,302.3,80.2z"/>
</g>
<g>
	
		<rect x="274.2" y="61.5" transform="matrix(6.270203e-02 -0.998 0.998 6.270203e-02 174.8089 352.6462)" class="st3" width="2" height="43.4"/>
</g>
<g>
	<polygon class="st3" points="317,176.2 293.3,135.8 266.4,137.4 266.3,135.4 294.4,133.8 318.7,175.2 	"/>
</g>
<g>
	<circle class="st2" cx="320.3" cy="180.5" r="5.8"/>
	<path class="st3" d="M320.3,187.3c-3.7,0-6.8-3-6.8-6.8s3-6.8,6.8-6.8s6.8,3,6.8,6.8C327.1,184.2,324.1,187.3,320.3,187.3z
		 M320.3,175.7c-2.6,0-4.8,2.1-4.8,4.8c0,2.6,2.1,4.8,4.8,4.8c2.6,0,4.8-2.1,4.8-4.8C325.1,177.9,323,175.7,320.3,175.7z"/>
</g>
<g>
	<path class="st2" d="M174.6,155.1v-4.6h-5.5v-6.2h-20.2c-4.1,0-7.5,3.4-7.5,7.5v4.5h-4.4v4.6h4.4v4.5c0,4.1,3.4,7.5,7.5,7.5h20.2
		v-6.6h5.5v-4.6h-5.5v-6.6L174.6,155.1L174.6,155.1z"/>
	<path class="st0" d="M170.1,173.8h-21.2c-4.7,0-8.5-3.8-8.5-8.5v-3.5h-4.4v-6.6h4.4v-3.5c0-4.7,3.8-8.5,8.5-8.5h21.2v6.2h5.5v6.6
		h-5.5v4.6h5.5v6.6h-5.5V173.8z M138,159.9h4.4v5.5c0,3.6,2.9,6.5,6.5,6.5h19.2v-6.6h5.5v-2.6h-5.5v-8.5h5.5v-2.6h-5.5v-6.2h-19.2
		c-3.6,0-6.5,2.9-6.5,6.5v5.5H138V159.9z"/>
</g>
<g>
	<circle class="st2" cx="231.3" cy="82.7" r="22.4"/>
	<path class="st0" d="M231.3,106.1c-12.9,0-23.4-10.5-23.4-23.4s10.5-23.4,23.4-23.4c12.9,0,23.4,10.5,23.4,23.4
		S244.2,106.1,231.3,106.1z M231.3,61.3c-11.8,0-21.4,9.6-21.4,21.4s9.6,21.4,21.4,21.4c11.8,0,21.4-9.6,21.4-21.4
		S243.1,61.3,231.3,61.3z"/>
</g>
<g>
	<path class="st0" d="M231.1,95.9l-0.3,0l0.1-3.3l0.2,0c5.9,0,10.7-4.8,10.7-10.7c0-5.9-4.8-10.7-10.7-10.7
		c-5.9,0-10.7,4.8-10.7,10.7h-3.3c0-7.7,6.3-13.9,13.9-13.9c7.7,0,13.9,6.3,13.9,13.9S238.8,95.9,231.1,95.9z"/>
</g>
<g>
	<polygon class="st0" points="237.6,99.7 228.6,95.2 233.7,86 236.6,87.7 233.1,93.8 239.1,96.7 	"/>
</g>
<g>
	<circle class="st2" cx="306.7" cy="48.5" r="5.8"/>
	<path class="st3" d="M306.7,55.2c-2.7,0-5.1-1.6-6.2-4c-1.5-3.4,0-7.4,3.4-8.9c0.9-0.4,1.8-0.6,2.8-0.6c2.7,0,5.1,1.6,6.2,4
		c1.5,3.4,0,7.4-3.4,8.9C308.6,55,307.7,55.2,306.7,55.2z M306.7,43.7c-0.7,0-1.3,0.1-2,0.4c-2.4,1.1-3.5,3.9-2.4,6.3
		c0.8,1.7,2.5,2.8,4.4,2.8c0.7,0,1.3-0.1,2-0.4c2.4-1.1,3.5-3.9,2.4-6.3C310.3,44.8,308.6,43.7,306.7,43.7z"/>
</g>
</svg>
