<?xml version="1.0" encoding="utf-8"?>
<!-- Generator: Adobe Illustrator 19.2.0, SVG Export Plug-In . SVG Version: 6.00 Build 0)  -->
<svg version="1.1" id="Слой_1" xmlns="http://www.w3.org/2000/svg" xmlns:xlink="http://www.w3.org/1999/xlink" x="0px" y="0px"
	 viewBox="0 0 100 100" style="enable-background:new 0 0 100 100;" xml:space="preserve">
<style type="text/css">
	.st0{fill:#18BB3E;}
</style>
<title>Безымянный-1</title>
<path class="st0" d="M97.1,2c-3.4-3.4-9.7-2.2-13,1l-3.8,3.9l1,1l-1-1L68,19.2L40.2,9c-1.9-0.7-4.1-0.2-5.5,1.2l-2,2
	c-2.1,2.1-2.1,5.4,0,7.4c0.2,0.2,0.5,0.4,0.8,0.6l20.1,13.6L41.9,48.3c-0.3,0.3-0.7,0.4-1.1,0.3l-6-2.8c-2.6-1.3-5.8-0.2-7.1,2.5
	c-1,2.1-0.6,4.5,1.1,6.1l16,15.9c2,2.1,5.4,2.1,7.5,0.1c1.6-1.6,2.1-4,1.1-6.1l-2.8-6c-0.2-0.4-0.1-0.8,0.3-1.1l14.3-11.5l13.7,20
	c1.6,2.4,4.9,3,7.3,1.4c0.3-0.2,0.5-0.4,0.7-0.6l1.9-1.9c1.4-1.5,1.9-3.6,1.2-5.5L80,31.1l12.3-12.3l0,0l3.8-3.8
	C99.3,11.8,100.5,5.4,97.1,2z M94.1,13l-3.8,3.8l1,1l-1-1L76.7,30.4l10.7,29.5c0.3,0.9,0.1,1.9-0.6,2.5l-1.9,1.9
	c-0.9,0.9-2.5,0.9-3.4,0c-0.1-0.1-0.2-0.2-0.3-0.3L65.8,41.5L49,55c-1.3,1.1-1.7,2.9-1,4.5l2.8,6c0.4,0.9,0.2,2-0.5,2.7
	c-1,1-2.5,1-3.5,0l-16-15.9c-1-1-1-2.5,0-3.5c0.7-0.7,1.8-0.9,2.7-0.5l6,2.8c1.6,0.7,3.4,0.3,4.5-1.1l13.6-16.8L35.1,17.9
	c-1.1-0.7-1.4-2.2-0.6-3.3c0.1-0.1,0.2-0.2,0.3-0.4l2-2c0.7-0.7,1.6-0.9,2.5-0.6l29.5,10.8L82.4,8.9l0,0l3.8-3.8
	c2.2-2.2,6.8-3.1,8.9-1S96.3,10.7,94.1,13z"/>
<path class="st0" d="M33.7,65.5c-0.6-0.5-1.4-0.5-2,0L1.3,95.8c-0.6,0.5-0.8,1.4-0.3,2s1.4,0.8,2,0.3c0.1-0.1,0.2-0.2,0.3-0.3
	l30.4-30.3C34.2,66.9,34.2,66,33.7,65.5z"/>
<path class="st0" d="M10.9,76.5c0.4,0,0.7-0.2,1-0.4l15.2-15.2c0.5-0.6,0.3-1.5-0.3-2c-0.5-0.4-1.2-0.4-1.7,0L9.9,74.1
	c-0.6,0.6-0.6,1.5,0,2C10.2,76.4,10.6,76.5,10.9,76.5z"/>
<path class="st0" d="M2.8,84.6c0.4,0,0.7-0.2,1-0.4l4-4c0.6-0.5,0.8-1.4,0.3-2c-0.5-0.6-1.4-0.8-2-0.3C6,78,5.9,78.1,5.8,78.2l-4,4
	c-0.5,0.6-0.5,1.5,0,2C2.1,84.5,2.5,84.6,2.8,84.6z"/>
<path class="st0" d="M37.8,71.6L19.5,89.8c-0.6,0.5-0.8,1.4-0.3,2c0.5,0.6,1.4,0.8,2,0.3c0.1-0.1,0.2-0.2,0.3-0.3l18.2-18.2
	c0.5-0.6,0.5-1.5-0.1-2C39.1,71.1,38.3,71.1,37.8,71.6z"/>
<path class="st0" d="M15.8,93.5l-4,4c-0.6,0.5-0.8,1.4-0.3,2s1.4,0.8,2,0.3c0.1-0.1,0.2-0.2,0.3-0.3l4-4c0.5-0.6,0.3-1.5-0.3-2
	C17,93.1,16.3,93.1,15.8,93.5z"/>
</svg>
