<?xml version="1.0" encoding="utf-8"?>
<!-- Generator: Adobe Illustrator 19.2.0, SVG Export Plug-In . SVG Version: 6.00 Build 0)  -->
<svg version="1.1" id="Слой_1" xmlns="http://www.w3.org/2000/svg" xmlns:xlink="http://www.w3.org/1999/xlink" x="0px" y="0px"
	 viewBox="0 0 100 100" style="enable-background:new 0 0 100 100;" xml:space="preserve">
<style type="text/css">
	.st0{fill:#18BB3E;}
</style>
<title>Безымянный-1</title>
<g>
	<path class="st0" d="M72.8,38.3c-8,0-15.5,3.9-20,10.5L27.4,33.3c1.5-3.3,1.6-7.1,0.2-10.4l10.2-5.7c3.6,4.8,10.3,5.7,15.1,2.2
		S58.6,9,55,4.3S44.7-1.5,40,2.1c-3.9,2.9-5.3,8.1-3.5,12.6l-10.2,5.7c-4.1-5.8-12.2-7.2-17.9-3s-7.2,12.2-3,17.9s12.2,7.2,17.9,3
		c1-0.7,2-1.6,2.7-2.6l25.5,15.5c-3.8,7.1-3.8,15.7,0,22.8l-13.9,8.4C33.7,77.9,27,77.2,22.4,81c-4.6,3.8-5.3,10.5-1.5,15.1
		c3.8,4.6,10.5,5.3,15.1,1.5c3.7-3.1,5-8.3,3-12.7l13.9-8.4c7.6,11,22.8,13.8,33.8,6.1s13.8-22.8,6.1-33.8
		C88.3,42.2,80.8,38.3,72.8,38.3z M46.4,2.8c4.4,0,7.9,3.5,7.9,7.9s-3.5,7.9-7.9,7.9s-7.9-3.5-7.9-7.9c0,0,0,0,0,0
		C38.5,6.4,42.1,2.8,46.4,2.8z M15.7,37.8c-5.5,0-10-4.5-10-10s4.5-10,10-10s10,4.5,10,10C25.7,33.4,21.3,37.9,15.7,37.8
		C15.7,37.9,15.7,37.9,15.7,37.8L15.7,37.8z M29.1,97.2c-4.4,0-7.9-3.5-7.9-7.9c0-4.4,3.5-7.9,7.9-7.9s7.9,3.5,7.9,7.9l0,0
		C37,93.6,33.5,97.2,29.1,97.2z M72.8,84.2c-11.9,0-21.5-9.6-21.5-21.5S61,41.2,72.9,41.2c11.8,0,21.4,9.6,21.5,21.4
		C94.3,74.5,84.7,84.1,72.8,84.2L72.8,84.2z"/>
</g>
</svg>
