<?xml version="1.0" encoding="utf-8"?>
<!-- Generator: Adobe Illustrator 19.2.0, SVG Export Plug-In . SVG Version: 6.00 Build 0)  -->
<svg version="1.1" id="Слой_1" xmlns="http://www.w3.org/2000/svg" xmlns:xlink="http://www.w3.org/1999/xlink" x="0px" y="0px"
	 viewBox="0 0 60 60" style="enable-background:new 0 0 60 60;" xml:space="preserve">
<style type="text/css">
	.st0{fill:#71E971;}
	.st1{fill:#12DB12;}
</style>
<g>
	<g>
		<path class="st0" d="M25.3,1.9l-1.6,1.6l-6.3,6.3l6.3,6.3L30,9.8l6.3,6.3l6.3-6.3l-6.3-6.3l-1.6-1.6C32.1-0.6,27.9-0.6,25.3,1.9z"
			/>
		<path class="st1" d="M30,22.3l6.3,6.3l6.3-6.3l6.3,6.3l-6.3,6.3l-6.3-6.3L30,34.9l6.3,6.3L30,47.4l-6.3-6.3l-6.3-6.3l-6.3-6.3
			l6.3-6.3l6.3,6.3L30,22.3l-6.3-6.3l-6.3-6.3l-6.3,6.3l-6.3,6.3l-1.6,1.6c-2.6,2.6-2.6,6.8,0,9.4l1.6,1.6l6.3,6.3l6.3,6.3l6.3,6.3
			L30,60l6.3-6.3l6.3-6.3l6.3-6.3l6.3-6.3l1.6-1.6c2.6-2.6,2.6-6.8,0-9.4l-1.6-1.6l-6.3-6.3l-6.3-6.3l-6.3,6.3L30,22.3z"/>
	</g>
</g>
</svg>
