<?xml version="1.0" encoding="utf-8"?>
<!-- Generator: Adobe Illustrator 19.2.0, SVG Export Plug-In . SVG Version: 6.00 Build 0)  -->
<svg version="1.1" id="Слой_1" xmlns="http://www.w3.org/2000/svg" xmlns:xlink="http://www.w3.org/1999/xlink" x="0px" y="0px"
	 viewBox="0 0 100 100" style="enable-background:new 0 0 100 100;" xml:space="preserve">
<style type="text/css">
	.st0{fill:#18BB3E;}
</style>
<title>Безымянный-1</title>
<path class="st0" d="M82.5,57.8c5.5,0,10-4.5,10-10s-4.5-10-10-10h-0.4l-30-30c-0.5-0.5-1.2-0.5-1.7,0L38.1,20.1l-0.2-0.2
	c-8.2-6.4-20.1-4.8-26.4,3.4c0,0,0,0,0,0C7,29.2,6.2,37,9.6,43.5c0.4,0.7,1.2,1,2,0.6c0.7-0.4,1-1.2,0.6-2l0,0
	c-2.8-5.5-2.2-12.1,1.6-17c5.6-6.8,15.6-7.8,22.4-2.2c6.5,5.3,7.8,14.8,2.8,21.7c-3.8,4.9-10,7.1-16,5.9c-0.8-0.2-1.6,0.3-1.7,1.1
	s0.3,1.6,1.1,1.7c1.3,0.3,2.7,0.4,4,0.4c5.9,0,11.4-2.7,15-7.3c5.7-7.4,5.1-17.9-1.4-24.6l5.8-5.9l27.8,27.7c-1.3,2.7-1.3,5.7,0,8.4
	l-11,11c-15.4-2.3-29.8,8.4-32.1,23.8c-0.2,1.4-0.3,2.8-0.3,4.2c0,0.8,0.6,1.4,1.4,1.4h53.7c0.8,0,1.4-0.6,1.4-1.4
	c0-9.9-5.2-19-13.6-24.2l9.1-9.1L82.5,57.8 M90.1,47.8c0,4.2-3.3,7.6-7.5,7.6c0,0,0,0-0.1,0c-0.3,0-0.5,0-0.8,0
	c-0.3,0-0.6-0.1-0.8-0.1l-0.2,0c-0.2,0-0.4-0.1-0.6-0.2L79.9,55c-0.2-0.1-0.4-0.2-0.6-0.2l-0.2-0.1c-0.2-0.1-0.4-0.3-0.6-0.4h-0.1
	c-0.7-0.5-1.4-1.1-1.9-1.8v-0.1c-0.2-0.2-0.3-0.4-0.4-0.7c-2.2-3.6-1-8.2,2.5-10.4c3.6-2.2,8.2-1,10.4,2.5
	C89.7,45,90.1,46.4,90.1,47.8 M51.2,10.4l28,28c-1.7,0.6-3.3,1.6-4.5,3L47.5,14.2L51.2,10.4z M83.7,89.6H33
	c0.8-14,12.8-24.7,26.8-23.9c2.8,0.2,5.5,0.8,8.1,1.8l0.2,0.1l0.3,0.1c0.6,0.3,1.2,0.6,1.8,0.9c0.1,0.1,0.2,0.1,0.3,0.1
	C78.1,72.9,83.1,80.8,83.7,89.6 M79.2,57.3l-8.4,8.4c-1.8-0.9-3.6-1.5-5.5-2l9.5-9.5l0.3,0.3l0.3,0.3l0.3,0.3l0.3,0.3l0.5,0.4
	l0.4,0.3l0.4,0.2l0.3,0.2l0.4,0.2l0.5,0.2l0.4,0.2L79.2,57.3"/>
</svg>
