<svg xmlns="http://www.w3.org/2000/svg" width="35" height="13" viewBox="0 0 35 13">
    <g fill="#1E5A91" fill-rule="nonzero">
        <path d="M10.3.9C7.7.9 5.4 2.7 4.8 5.2H0v2.6h4.8c.6 2.5 2.9 4.3 5.5 4.3h6.3V9.5h-5.1V7.8h5.1V5.2h-5.1V3.5h5.1V.9h-6.3zM16.2 3H11v2.6h5.1v1.7H11V10h5.1v1.7h-5.9c-2.5 0-4.6-1.7-5.1-4.2v-.2H.4V5.6h4.7v-.2c.5-2.4 2.6-4.2 5.1-4.2h5.9V3h.1zM30.2 5.2C29.6 2.7 27.3.9 24.7.9h-1.2V3h-5.1v2.6h5.1v1.7h-5.1V10h5.1v2.2h1.2c2.6 0 4.9-1.8 5.5-4.3H35V5.3h-4.8v-.1zm4.4 2.2h-4.7v.2c-.5 2.4-2.6 4.2-5.1 4.2H24V9.6h-5.1V7.9H24V5.3h-5.1V3.6H24V1.4h.7c2.5 0 4.6 1.7 5.1 4.2v.2h4.7v1.6h.1z"/>
    </g>
</svg>
