<svg xmlns="http://www.w3.org/2000/svg" width="25" height="25" viewBox="0 0 25 25">
    <g fill="#1E5A91" fill-rule="nonzero">
        <path d="M13.8 0C7.7 0 2.7 5 2.7 11.2c0 2.7 1 5.2 2.6 7.1L.1 23.5c-.1.1-.1.2 0 .2L1.3 25h.1c.1 0 .1 0 .1-.1l5.2-5.2c1.9 1.6 4.4 2.6 7.1 2.6 6.2 0 11.2-5 11.2-11.2C25 5 20 0 13.8 0zM1.4 24.6l-1-1 5.1-5c.3.4.6.7 1 1l-5.1 5zM13.8 22C7.9 22 3 17.1 3 11.2S7.9.4 13.8.4c6 0 10.8 4.8 10.8 10.8.1 5.9-4.8 10.8-10.8 10.8z"/>
        <path d="M13.8 1.3C8.4 1.3 4 5.7 4 11.2c0 5.4 4.4 9.9 9.9 9.9 5.4 0 9.8-4.4 9.9-9.9-.1-5.5-4.5-9.9-10-9.9zm0 19.4c-5.2 0-9.5-4.3-9.5-9.5s4.3-9.5 9.5-9.5 9.5 4.3 9.5 9.5-4.2 9.5-9.5 9.5z"/>
        <path d="M16.9 8.5c-.4 0-.7.1-1 .4l-2.1-2.1c.1-.3.2-.5.2-.8 0-.8-.6-1.4-1.4-1.4-.8 0-1.3.6-1.3 1.4 0 .8.6 1.4 1.4 1.4.3 0 .6-.1.9-.3l2.1 2.1c-.2.3-.4.6-.4 1s.1.7.4 1l-2.4 2.4c-.4-.3-.9-.5-1.4-.5-1.3 0-2.4 1.1-2.4 2.4 0 1.3 1.1 2.4 2.4 2.4 1.3 0 2.4-1.1 2.4-2.4 0-.7-.3-1.3-.7-1.7l2.4-2.4c.3.2.6.4 1 .4.9 0 1.6-.7 1.6-1.6-.1-.9-.8-1.7-1.7-1.7zm-3 7c0 1.1-.9 2.1-2.1 2.1-1.2 0-2.1-.9-2.1-2.1 0-1.1.9-2.1 2.1-2.1 1.1 0 2.1 1 2.1 2.1zM12.6 7c-.6 0-1-.4-1-1s.5-1.1 1.1-1.1c.6 0 1.1.5 1.1 1.1 0 .6-.6 1-1.2 1zm4.3 4.4c-.7 0-1.3-.6-1.3-1.3 0-.7.6-1.3 1.3-1.3.7 0 1.3.6 1.3 1.3 0 .8-.6 1.3-1.3 1.3z"/>
    </g>
</svg>
