<?xml version="1.0" encoding="utf-8"?>
<!-- Generator: Adobe Illustrator 19.2.0, SVG Export Plug-In . SVG Version: 6.00 Build 0)  -->
<svg version="1.1" id="Слой_1" xmlns="http://www.w3.org/2000/svg" xmlns:xlink="http://www.w3.org/1999/xlink" x="0px" y="0px"
	 viewBox="0 0 22 22" style="enable-background:new 0 0 22 22;" xml:space="preserve">
<style type="text/css">
	.st0{fill:#84848B;}
</style>
<g>
	<path class="st0" d="M15.3,21c-0.1,0-0.2,0-0.3,0c-1.4-0.1-2.8-0.6-3.7-1.1c-2.5-1.2-4.7-3-6.5-5.1C3.3,13,2.2,11.3,1.6,9.5
		C1.3,8.7,0.9,7.6,1,6.3c0.1-0.8,0.4-1.5,1-2.1l1.4-1.4c0.4-0.4,1-0.7,1.6-0.7c0.6,0,1.2,0.3,1.6,0.7C6.9,3,7.2,3.3,7.4,3.6
		c0.1,0.1,0.2,0.3,0.4,0.4l1.1,1.1c0.5,0.4,0.7,1,0.7,1.6c0,0.6-0.3,1.2-0.7,1.6L8.7,8.5L8.5,8.7L8.5,8.8C8.3,9,8.1,9.2,7.8,9.4
		c-0.1,0-0.1,0.1,0,0.2c0.3,0.5,0.6,0.9,0.9,1.4c0.9,1.2,2,2.2,3.3,3c0.1,0.1,0.2,0.1,0.4,0.2c0.1,0,0.1,0,0.2,0l1-1
		c0.4-0.5,1-0.7,1.6-0.7c0.6,0,1.2,0.3,1.6,0.7l2.3,2.3c0.5,0.4,0.7,1,0.7,1.6c0,0.6-0.3,1.2-0.7,1.6c-0.2,0.2-0.3,0.3-0.5,0.5
		l-0.1,0.1c-0.2,0.2-0.4,0.4-0.6,0.6l0,0l0,0C17.2,20.6,16.3,21,15.3,21z M5,2.7c-0.4,0-0.9,0.2-1.2,0.5L2.4,4.7
		C2,5.1,1.7,5.7,1.6,6.4C1.5,7.5,1.9,8.6,2.1,9.3c0.7,1.8,1.6,3.4,3.1,5.1c1.7,2.1,3.9,3.8,6.3,4.9c0.9,0.4,2.1,0.9,3.5,1
		c0.1,0,0.2,0,0.2,0c0.8,0,1.6-0.3,2.1-0.9l0,0l0,0c0.2-0.3,0.4-0.5,0.7-0.7l0.1-0.1c0.2-0.2,0.4-0.4,0.5-0.5
		c0.3-0.3,0.5-0.7,0.5-1.2c0-0.4-0.2-0.9-0.5-1.2l-2.3-2.3c-0.3-0.3-0.7-0.5-1.1-0.5c-0.4,0-0.9,0.2-1.2,0.5l-1,1
		c-0.2,0.2-0.6,0.3-0.9,0.1c-0.2-0.1-0.3-0.1-0.4-0.2c-1.3-0.9-2.5-1.9-3.5-3.1c-0.4-0.5-0.7-1-1-1.5C7.1,9.6,7.1,9.2,7.4,8.9
		C7.6,8.7,7.8,8.5,8,8.3l0.1-0.1l0.2-0.2l0.2-0.2C8.8,7.6,9,7.2,9,6.7c0-0.5-0.2-0.9-0.6-1.2L7.3,4.4C7.2,4.3,7,4.1,6.9,4
		C6.7,3.8,6.4,3.5,6.2,3.2C5.9,2.9,5.5,2.7,5,2.7z M17.9,19.9L17.9,19.9z M17.4,19.4L17.4,19.4z"/>
	<path class="st0" d="M17.2,10.3c-0.2,0-0.3-0.1-0.3-0.3c-0.4-2.5-2.4-4.5-4.9-4.9c-0.2,0-0.3-0.2-0.3-0.4c0-0.2,0.2-0.3,0.4-0.3
		l0,0c2.8,0.5,5,2.7,5.5,5.5C17.5,10.1,17.4,10.3,17.2,10.3L17.2,10.3z"/>
	<path class="st0" d="M20.7,10.2c-0.2,0-0.3-0.1-0.3-0.3c-0.7-4.2-4.1-7.6-8.3-8.3c-0.2,0-0.3-0.2-0.3-0.4S12,1,12.2,1
		c4.5,0.8,8,4.3,8.8,8.8C21,10,20.9,10.1,20.7,10.2L20.7,10.2z"/>
</g>
</svg>
