<?xml version="1.0" encoding="utf-8"?>
<!-- Generator: Adobe Illustrator 19.2.0, SVG Export Plug-In . SVG Version: 6.00 Build 0)  -->
<svg version="1.1" id="Слой_1" xmlns="http://www.w3.org/2000/svg" xmlns:xlink="http://www.w3.org/1999/xlink" x="0px" y="0px"
	 viewBox="0 0 22 22" style="enable-background:new 0 0 22 22;" xml:space="preserve">
<style type="text/css">
	.st0{fill:#84848B;}
</style>
<g>
	<path class="st0" d="M11.1,11c-1.9,0-3.4-1.5-3.4-3.4s1.5-3.4,3.4-3.4s3.4,1.5,3.4,3.4C14.4,9.5,12.9,11,11.1,11z M11.1,5
		C9.6,5,8.5,6.2,8.5,7.6s1.2,2.6,2.6,2.6c1.4,0,2.6-1.2,2.6-2.6C13.7,6.2,12.5,5,11.1,5z"/>
	<path class="st0" d="M11,22l-6.2-8.9C2.5,10,2.9,5,5.6,2.3c3-3,7.9-3,10.9,0c0,0,0,0,0,0c2.7,2.7,3,7.8,0.7,10.9L11,22z M11,0.7
		c-1.8,0-3.6,0.7-4.9,2c-2.5,2.5-2.8,7.1-0.6,9.9l5.6,8l5.5-8c2.1-2.8,1.8-7.4-0.6-9.9C14.6,1.5,12.8,0.7,11,0.7z"/>
</g>
</svg>
