<?xml version="1.0" encoding="utf-8"?>
<!-- Generator: Adobe Illustrator 19.2.0, SVG Export Plug-In . SVG Version: 6.00 Build 0)  -->
<svg version="1.1" id="Слой_1" xmlns="http://www.w3.org/2000/svg" xmlns:xlink="http://www.w3.org/1999/xlink" x="0px" y="0px"
	 viewBox="0 0 22 22" style="enable-background:new 0 0 22 22;" xml:space="preserve">
<style type="text/css">
	.st0{fill:#84848B;}
</style>
<g>
	<path class="st0" d="M9.7,21L9.7,21c-0.3,0-0.6-0.2-0.7-0.5l-2.1-5.7L1.5,13c-0.4-0.1-0.6-0.6-0.5-1c0.1-0.2,0.2-0.3,0.3-0.4
		L19.9,1.1c0.3-0.1,0.6-0.1,0.8,0h0C20.9,1.3,21,1.6,21,1.9l-2.6,15.9c0,0.2-0.2,0.4-0.4,0.5c-0.2,0.1-0.4,0.1-0.6,0.1L13.3,17
		l-3,3.8C10.1,20.9,10,21,9.7,21L9.7,21L9.7,21L9.7,21z M7.5,14.7l2,5.4l0.9-4.4l8-11.7L7.5,14.7z M11,15.9l-0.8,3.9l2.9-3.6
		l4.5,1.5c0,0,0.1,0,0.1,0c0,0,0.1,0,0.1-0.1l2.6-15.3L11,15.9z M19.2,2.2l-17.5,10c-0.1,0-0.1,0.1,0,0.2c0,0,0,0,0.1,0.1l5.3,1.8
		L19.2,2.2z"/>
	<path class="st0" d="M13.2,16.9c0,0-0.1,0-0.1,0l-2.5-0.8c-0.2-0.1-0.2-0.3-0.2-0.4c0.1-0.1,0.2-0.2,0.4-0.2l2.5,0.8
		c0.2,0.1,0.3,0.2,0.2,0.4C13.4,16.8,13.3,16.9,13.2,16.9z"/>
</g>
</svg>
