<svg xmlns="http://www.w3.org/2000/svg" width="28" height="20" viewBox="0 0 28 20">
    <g fill="#1E5A91" fill-rule="nonzero">
        <path d="M27.84 16.4h-.88v-14c0-.88-.72-1.68-1.68-1.68H2.72c-.88 0-1.6.72-1.6 1.68v14H.16c-.08 0-.16.08-.16.16v1.12c0 .88.72 1.52 1.52 1.52h24.96c.8 0 1.52-.64 1.52-1.52v-1.12c0-.08-.08-.16-.16-.16zm-26.4-14c0-.72.56-1.28 1.28-1.28H25.2c.72 0 1.28.56 1.28 1.28v14.08h-.56c.08-.16.16-.32.16-.48V2.4c0-.48-.4-.88-.88-.88H2.72c-.48 0-.88.4-.88.88v13.52c0 .16.08.32.16.48h-.56v-14zm4.8 14h-3.6c-.24 0-.4-.24-.4-.48V2.4c0-.24.24-.48.48-.48H25.2c.24 0 .48.24.48.48v13.52c0 .24-.24.48-.48.48H6.24zm15.2.4c-.24.32-.56.56-.96.56H7.52c-.4 0-.8-.24-.96-.56h14.88zm6.16.96c0 .64-.48 1.12-1.12 1.12H1.52C.88 18.88.4 18.4.4 17.76v-.96h5.68c.24.56.8.96 1.44.96h12.96c.64 0 1.2-.4 1.44-.96h5.76v.96h-.08z"/>
        <path d="M10.8 6.32c.08-.08.08-.16 0-.24-.08-.08-.16-.08-.24 0L5.92 9.2l-.08.08c-.08.08 0 .24.08.24l4.64 3.12h.08c.08 0 .08 0 .16-.08s0-.24-.08-.24l-4.4-2.96 4.48-3.04zM17.44 6c-.16-.08-.24 0-.32.08-.08.08 0 .24.08.24l4.4 2.96-4.4 2.96c-.08 0-.08.08-.08.16s.08.16.16.16h.08L22 9.44l.08-.08c.08-.08 0-.24-.08-.24L17.44 6zM15.36 5.52l-3.12 7.2v.08c0 .08.08.16.16.16s.16-.08.16-.08l3.12-7.2c.08-.08 0-.24-.08-.24-.08-.08-.16 0-.24.08z"/>
    </g>
</svg>
