<?xml version="1.0" encoding="utf-8"?>
<!-- Generator: Adobe Illustrator 19.2.0, SVG Export Plug-In . SVG Version: 6.00 Build 0)  -->
<svg version="1.1" id="Слой_1" xmlns="http://www.w3.org/2000/svg" xmlns:xlink="http://www.w3.org/1999/xlink" x="0px" y="0px"
	 viewBox="0 0 25 25" style="enable-background:new 0 0 25 25;" xml:space="preserve">
<style type="text/css">
	.st0{fill:#1E5A91;}
</style>
<title>research</title>
<g>
	<path class="st0" d="M13.8,0C7.7,0,2.7,5,2.7,11.2c0,2.7,1,5.2,2.6,7.1l-5.2,5.2c-0.1,0.1-0.1,0.2,0,0.2L1.3,25c0,0,0.1,0,0.1,0
		c0.1,0,0.1,0,0.1-0.1l5.2-5.2c1.9,1.6,4.4,2.6,7.1,2.6c6.2,0,11.2-5,11.2-11.2C25,5,20,0,13.8,0z M1.4,24.6l-1-1l5.1-5
		c0.3,0.4,0.6,0.7,1,1L1.4,24.6z M13.8,22C7.9,22,3,17.1,3,11.2S7.9,0.4,13.8,0.4v0c6,0,10.8,4.8,10.8,10.8
		C24.7,17.1,19.8,22,13.8,22z"/>
	<path class="st0" d="M13.8,1.3C8.4,1.3,4,5.7,4,11.2c0,5.4,4.4,9.9,9.9,9.9c5.4,0,9.8-4.4,9.9-9.9C23.7,5.7,19.3,1.3,13.8,1.3z
		 M13.8,20.7c-5.2,0-9.5-4.3-9.5-9.5c0-5.2,4.3-9.5,9.5-9.5c5.2,0,9.5,4.3,9.5,9.5c0,0,0,0,0,0C23.3,16.4,19.1,20.7,13.8,20.7z"/>
	<path class="st0" d="M16.9,8.5c-0.4,0-0.7,0.1-1,0.4l-2.1-2.1C13.9,6.5,14,6.3,14,6c0-0.8-0.6-1.4-1.4-1.4S11.3,5.2,11.3,6
		s0.6,1.4,1.4,1.4c0.3,0,0.6-0.1,0.9-0.3l2.1,2.1c-0.2,0.3-0.4,0.6-0.4,1c0,0.4,0.1,0.7,0.4,1l-2.4,2.4c-0.4-0.3-0.9-0.5-1.4-0.5
		c-1.3,0-2.4,1.1-2.4,2.4s1.1,2.4,2.4,2.4c1.3,0,2.4-1.1,2.4-2.4c0,0,0,0,0,0c0-0.7-0.3-1.3-0.7-1.7l2.4-2.4c0.3,0.2,0.6,0.4,1,0.4
		c0.9,0,1.6-0.7,1.6-1.6C18.5,9.3,17.8,8.5,16.9,8.5z M13.9,15.5c0,1.1-0.9,2.1-2.1,2.1s-2.1-0.9-2.1-2.1c0-1.1,0.9-2.1,2.1-2.1
		C12.9,13.4,13.9,14.4,13.9,15.5z M12.6,7C12,7,11.6,6.6,11.6,6s0.5-1.1,1.1-1.1s1.1,0.5,1.1,1.1S13.2,7,12.6,7z M16.9,11.4
		c-0.7,0-1.3-0.6-1.3-1.3c0-0.7,0.6-1.3,1.3-1.3c0.7,0,1.3,0.6,1.3,1.3C18.2,10.9,17.6,11.4,16.9,11.4z"/>
</g>
</svg>
