<?xml version="1.0" encoding="utf-8"?>
<!-- Generator: Adobe Illustrator 19.2.0, SVG Export Plug-In . SVG Version: 6.00 Build 0)  -->
<svg version="1.1" id="Facebook" xmlns="http://www.w3.org/2000/svg" xmlns:xlink="http://www.w3.org/1999/xlink" x="0px" y="0px"
	 viewBox="0 0 40 40" style="enable-background:new 0 0 40 40;" xml:space="preserve">
<style type="text/css">
	.st0{fill:#71E971;}
</style>
<path class="st0" d="M35.6,0H4.4C2,0,0,2,0,4.4v31.1C0,38,2,40,4.4,40h10.1c0-0.1,0.1-0.3,0.1-0.4c0-0.5,0-1.9,0-3.7
	c-6,1.3-7.3-2.9-7.3-2.9c-1-2.5-2.4-3.2-2.4-3.2c-2-1.3,0.1-1.3,0.1-1.3c2.2,0.2,3.3,2.2,3.3,2.2c1.9,3.3,5.1,2.4,6.3,1.8
	c0.1-1.1,0.6-2.1,1.4-2.9c-4.8-0.5-9.9-2.4-9.9-10.7c0-2.1,0.8-4.2,2.2-5.8c-0.7-1.9-0.6-3.9,0.2-5.7c0,0,1.8-0.6,6,2.2
	c3.5-1,7.3-1,10.8,0c4.1-2.8,5.9-2.2,5.9-2.2c0.8,1.8,0.9,3.9,0.2,5.7c1.5,1.6,2.3,3.7,2.2,5.8c0,8.3-5.1,10.1-9.9,10.7
	c0.8,0.7,1.5,2,1.5,4c0,2.9,0,5.2,0,5.9c0,0.1,0,0.3,0.1,0.4h10.1c2.4-0.1,4.3-2,4.4-4.4V4.4C40,2,38,0,35.6,0z"/>
</svg>
