<?xml version="1.0" encoding="utf-8"?>
<!-- Generator: Adobe Illustrator 19.2.0, SVG Export Plug-In . SVG Version: 6.00 Build 0)  -->
<svg version="1.1" id="Facebook" xmlns="http://www.w3.org/2000/svg" xmlns:xlink="http://www.w3.org/1999/xlink" x="0px" y="0px"
	 viewBox="0 0 40 40" style="enable-background:new 0 0 40 40;" xml:space="preserve">
<style type="text/css">
	.st0{fill:#71E971;}
</style>
<path class="st0" d="M35.6,0H4.4C2,0,0,2,0,4.4v31.1C0,38,2,40,4.4,40h31.1c2.5,0,4.4-2,4.4-4.4V4.4C40,2,38,0,35.6,0z M12.7,33.2
	h-6V13.9h6V33.2z M9.7,11.5C8,11.6,6.6,10.4,6.4,8.7s1.1-3.1,2.8-3.2c0.2,0,0.4,0,0.6,0c1.6-0.1,3.1,1.1,3.2,2.8c0,0.1,0,0.2,0,0.2
	C12.9,10.2,11.7,11.5,9.7,11.5z M34.7,33.2h-6V22.5c0-2.5-0.9-4.2-3-4.2c-1.4,0-2.6,0.9-3.1,2.3c-0.2,0.5-0.2,1-0.2,1.5v11.2h-6
	V20.1c0-2.4-0.1-4.4-0.2-6.2h5.2l0.3,2.7h0.1c1.3-2,3.6-3.2,6-3.1c4,0,6.9,2.7,6.9,8.4L34.7,33.2L34.7,33.2z"/>
</svg>
