<?xml version="1.0" encoding="utf-8"?>
<!-- Generator: Adobe Illustrator 19.2.0, SVG Export Plug-In . SVG Version: 6.00 Build 0)  -->
<svg version="1.1" id="Слой_1" xmlns="http://www.w3.org/2000/svg" xmlns:xlink="http://www.w3.org/1999/xlink" x="0px" y="0px"
	 viewBox="0 0 35 35" style="enable-background:new 0 0 35 35;" xml:space="preserve">
<style type="text/css">
	.st0{fill:#1E5A91;}
</style>
<title>Безымянный-1</title>
<g>
	<path class="st0" d="M34.8,25.5h-1.1V8c0-1.1-0.9-2.1-2.1-2.1H3.4C2.3,5.9,1.4,6.8,1.4,8v17.5H0.2c-0.1,0-0.2,0.1-0.2,0.2v1.4
		c0,1.1,0.9,1.9,1.9,1.9h31.2c1,0,1.9-0.8,1.9-1.9v-1.4C35,25.6,34.9,25.5,34.8,25.5z M1.8,8c0-0.9,0.7-1.6,1.6-1.6h28.1
		c0.9,0,1.6,0.7,1.6,1.6v17.6h-0.7c0.1-0.2,0.2-0.4,0.2-0.6V8c0-0.6-0.5-1.1-1.1-1.1H3.4C2.8,6.9,2.3,7.4,2.3,8v16.9
		c0,0.2,0.1,0.4,0.2,0.6H1.8V8z M7.8,25.5H3.3c-0.3,0-0.5-0.3-0.5-0.6V8c0,0,0,0,0,0c0-0.3,0.3-0.6,0.6-0.6l0,0h28.1
		c0.3,0,0.6,0.3,0.6,0.6v16.9c0,0.3-0.3,0.6-0.6,0.6L7.8,25.5C7.9,25.5,7.8,25.5,7.8,25.5z M26.8,26c-0.3,0.4-0.7,0.7-1.2,0.7H9.4
		c-0.5,0-1-0.3-1.2-0.7H26.8z M34.5,27.2c0,0.8-0.6,1.4-1.4,1.4H1.9c-0.8,0-1.4-0.6-1.4-1.4V26h2.9h4.2c0.3,0.7,1,1.2,1.8,1.2h16.2
		c0.8,0,1.5-0.5,1.8-1.2h4.2h3V27.2z"/>
	<path class="st0" d="M13.5,12.9c0.1-0.1,0.1-0.2,0-0.3c-0.1-0.1-0.2-0.1-0.3,0l-5.8,3.9c0,0,0,0-0.1,0.1c-0.1,0.1,0,0.3,0.1,0.3
		l5.8,3.9c0,0,0.1,0,0.1,0c0.1,0,0.1,0,0.2-0.1c0.1-0.1,0-0.3-0.1-0.3l-5.5-3.7L13.5,12.9C13.5,12.9,13.5,12.9,13.5,12.9z"/>
	<path class="st0" d="M21.8,12.5C21.8,12.5,21.8,12.5,21.8,12.5c-0.2-0.1-0.3,0-0.4,0.1c-0.1,0.1,0,0.3,0.1,0.3l5.5,3.7l-5.5,3.7
		c-0.1,0-0.1,0.1-0.1,0.2c0,0.1,0.1,0.2,0.2,0.2c0,0,0.1,0,0.1,0l5.8-3.9c0,0,0,0,0.1-0.1c0.1-0.1,0-0.3-0.1-0.3L21.8,12.5z"/>
	<path class="st0" d="M19.2,11.9l-3.9,9c0,0,0,0.1,0,0.1c0,0.1,0.1,0.2,0.2,0.2c0.1,0,0.2-0.1,0.2-0.1l3.9-9c0.1-0.1,0-0.3-0.1-0.3
		C19.4,11.7,19.3,11.8,19.2,11.9z"/>
</g>
</svg>
