<?xml version="1.0" encoding="utf-8"?>
<!-- Generator: Adobe Illustrator 19.2.0, SVG Export Plug-In . SVG Version: 6.00 Build 0)  -->
<svg version="1.1" id="Facebook" xmlns="http://www.w3.org/2000/svg" xmlns:xlink="http://www.w3.org/1999/xlink" x="0px" y="0px"
	 viewBox="0 0 56 56" style="enable-background:new 0 0 56 56;" xml:space="preserve">
<style type="text/css">
	.st0{fill:#84848B;}
</style>
<path class="st0" d="M49.8,0H6.2C2.8,0,0,2.8,0,6.2v43.5C0,53.2,2.8,56,6.2,56h43.5c3.4,0,6.2-2.8,6.2-6.2V6.2C56,2.8,53.2,0,49.8,0
	z M17.8,46.5H9.4V19.4h8.4V46.5z M13.6,16.1c-2.3,0.2-4.4-1.5-4.5-3.9c-0.2-2.3,1.5-4.4,3.9-4.5c0.3,0,0.5,0,0.8,0
	c2.3-0.1,4.3,1.6,4.4,3.9c0,0.1,0,0.2,0,0.3C18.1,14.2,16.4,16.1,13.6,16.1z M48.6,46.5h-8.5v-15c0-3.5-1.2-5.9-4.3-5.9
	c-2,0-3.7,1.3-4.3,3.2c-0.2,0.7-0.3,1.4-0.3,2.1v15.6h-8.4V28.1c0-3.4-0.1-6.2-0.2-8.7H30l0.4,3.7h0.2c1.9-2.8,5-4.5,8.4-4.4
	c5.5,0,9.7,3.7,9.7,11.7L48.6,46.5L48.6,46.5z"/>
</svg>
