<?xml version="1.0" encoding="utf-8"?>
<!-- Generator: Adobe Illustrator 19.2.0, SVG Export Plug-In . SVG Version: 6.00 Build 0)  -->
<svg version="1.1" id="Facebook" xmlns="http://www.w3.org/2000/svg" xmlns:xlink="http://www.w3.org/1999/xlink" x="0px" y="0px"
	 viewBox="0 0 56 56" style="enable-background:new 0 0 56 56;" xml:space="preserve">
<style type="text/css">
	.st0{fill:#84848B;}
</style>
<path class="st0" d="M49.8,0H6.2C2.8,0,0,2.8,0,6.2v43.5C0,53.2,2.8,56,6.2,56h43.6c3.4,0,6.2-2.8,6.2-6.2V6.2C56,2.8,53.2,0,49.8,0
	z M45.3,19.1v1.2c0,11.8-8.9,25.5-25.4,25.5c-4.9,0-9.6-1.4-13.7-4c0.7,0.1,1.4,0.1,2.1,0.1c4,0,7.9-1.3,11.1-3.8
	c-3.8-0.1-7.2-2.6-8.4-6.3c0.6,0.1,1.1,0.2,1.7,0.2c0.8,0,1.6-0.1,2.4-0.3c-4.2-0.8-7.2-4.5-7.2-8.8v-0.1c1.2,0.7,2.6,1.1,4.1,1.1
	C8.1,21.3,6.8,16,9.2,11.9c4.5,5.6,11.2,9,18.4,9.3c-1.2-4.8,1.8-9.6,6.6-10.8c3.2-0.8,6.5,0.2,8.7,2.7c2-0.4,3.9-1.1,5.7-2.2
	c-0.7,2.1-2.1,3.8-3.9,4.9c1.8-0.2,3.5-0.7,5.1-1.4C48.6,16.3,47.1,17.8,45.3,19.1z"/>
</svg>
